<svg width="1787" height="1913" viewBox="0 0 1787 1913" fill="none" xmlns="http://www.w3.org/2000/svg">
<g filter="url(#filter0_d_273_19)">
<g filter="url(#filter1_d_273_19)">
<rect x="104" y="100" width="1579" height="1705" rx="60" fill="#2A2730"/>
<rect x="102" y="98" width="1583" height="1709" rx="62" stroke="#4611DB" stroke-width="4"/>
</g>
<path d="M314.681 348.448C310.457 348.448 306.574 347.467 303.033 345.504C299.534 343.541 296.74 340.811 294.649 337.312C292.601 333.771 291.577 329.803 291.577 325.408C291.577 321.013 292.601 317.067 294.649 313.568C296.74 310.069 299.534 307.339 303.033 305.376C306.574 303.413 310.457 302.432 314.681 302.432C318.905 302.432 322.766 303.413 326.265 305.376C329.806 307.339 332.58 310.069 334.585 313.568C336.633 317.067 337.657 321.013 337.657 325.408C337.657 329.803 336.633 333.771 334.585 337.312C332.537 340.811 329.764 343.541 326.265 345.504C322.766 347.467 318.905 348.448 314.681 348.448ZM314.681 338.464C318.265 338.464 321.124 337.269 323.257 334.88C325.433 332.491 326.521 329.333 326.521 325.408C326.521 321.44 325.433 318.283 323.257 315.936C321.124 313.547 318.265 312.352 314.681 312.352C311.054 312.352 308.153 313.525 305.977 315.872C303.844 318.219 302.777 321.397 302.777 325.408C302.777 329.376 303.844 332.555 305.977 334.944C308.153 337.291 311.054 338.464 314.681 338.464ZM354.497 303.072V329.952C354.497 332.64 355.159 334.709 356.481 336.16C357.804 337.611 359.745 338.336 362.305 338.336C364.865 338.336 366.828 337.611 368.193 336.16C369.559 334.709 370.241 332.64 370.241 329.952V303.072H381.185V329.888C381.185 333.899 380.332 337.291 378.625 340.064C376.919 342.837 374.615 344.928 371.713 346.336C368.855 347.744 365.655 348.448 362.113 348.448C358.572 348.448 355.393 347.765 352.577 346.4C349.804 344.992 347.607 342.901 345.985 340.128C344.364 337.312 343.553 333.899 343.553 329.888V303.072H354.497ZM411.782 348L402.438 331.04H399.814V348H388.87V303.072H407.238C410.78 303.072 413.788 303.691 416.262 304.928C418.78 306.165 420.657 307.872 421.894 310.048C423.132 312.181 423.75 314.571 423.75 317.216C423.75 320.203 422.897 322.869 421.19 325.216C419.526 327.563 417.052 329.227 413.766 330.208L424.134 348H411.782ZM399.814 323.296H406.598C408.604 323.296 410.097 322.805 411.078 321.824C412.102 320.843 412.614 319.456 412.614 317.664C412.614 315.957 412.102 314.613 411.078 313.632C410.097 312.651 408.604 312.16 406.598 312.16H399.814V323.296ZM460.439 348.448C457.154 348.448 454.21 347.915 451.607 346.848C449.004 345.781 446.914 344.203 445.335 342.112C443.799 340.021 442.988 337.504 442.903 334.56H454.551C454.722 336.224 455.298 337.504 456.279 338.4C457.26 339.253 458.54 339.68 460.119 339.68C461.74 339.68 463.02 339.317 463.959 338.592C464.898 337.824 465.367 336.779 465.367 335.456C465.367 334.347 464.983 333.429 464.215 332.704C463.49 331.979 462.572 331.381 461.463 330.912C460.396 330.443 458.86 329.909 456.855 329.312C453.954 328.416 451.586 327.52 449.751 326.624C447.916 325.728 446.338 324.405 445.015 322.656C443.692 320.907 443.031 318.624 443.031 315.808C443.031 311.627 444.546 308.363 447.575 306.016C450.604 303.627 454.551 302.432 459.415 302.432C464.364 302.432 468.354 303.627 471.383 306.016C474.412 308.363 476.034 311.648 476.247 315.872H464.407C464.322 314.421 463.788 313.291 462.807 312.48C461.826 311.627 460.567 311.2 459.031 311.2C457.708 311.2 456.642 311.563 455.831 312.288C455.02 312.971 454.615 313.973 454.615 315.296C454.615 316.747 455.298 317.877 456.663 318.688C458.028 319.499 460.162 320.373 463.063 321.312C465.964 322.293 468.311 323.232 470.103 324.128C471.938 325.024 473.516 326.325 474.839 328.032C476.162 329.739 476.823 331.936 476.823 334.624C476.823 337.184 476.162 339.509 474.839 341.6C473.559 343.691 471.682 345.355 469.207 346.592C466.732 347.829 463.81 348.448 460.439 348.448ZM494.502 311.84V320.928H509.158V329.376H494.502V339.232H511.078V348H483.558V303.072H511.078V311.84H494.502ZM541.095 348L531.751 331.04H529.127V348H518.183V303.072H536.551C540.092 303.072 543.1 303.691 545.575 304.928C548.092 306.165 549.97 307.872 551.207 310.048C552.444 312.181 553.063 314.571 553.063 317.216C553.063 320.203 552.21 322.869 550.503 325.216C548.839 327.563 546.364 329.227 543.079 330.208L553.447 348H541.095ZM529.127 323.296H535.911C537.916 323.296 539.41 322.805 540.391 321.824C541.415 320.843 541.927 319.456 541.927 317.664C541.927 315.957 541.415 314.613 540.391 313.632C539.41 312.651 537.916 312.16 535.911 312.16H529.127V323.296ZM602.109 303.072L586.173 348H572.477L556.541 303.072H568.189L579.325 336.992L590.525 303.072H602.109ZM617.627 303.072V348H606.683V303.072H617.627ZM623.702 325.472C623.702 321.035 624.662 317.088 626.582 313.632C628.502 310.133 631.169 307.424 634.582 305.504C638.038 303.541 641.942 302.56 646.294 302.56C651.627 302.56 656.193 303.968 659.99 306.784C663.787 309.6 666.326 313.44 667.606 318.304H655.574C654.678 316.427 653.398 314.997 651.734 314.016C650.113 313.035 648.257 312.544 646.166 312.544C642.795 312.544 640.065 313.717 637.974 316.064C635.883 318.411 634.838 321.547 634.838 325.472C634.838 329.397 635.883 332.533 637.974 334.88C640.065 337.227 642.795 338.4 646.166 338.4C648.257 338.4 650.113 337.909 651.734 336.928C653.398 335.947 654.678 334.517 655.574 332.64H667.606C666.326 337.504 663.787 341.344 659.99 344.16C656.193 346.933 651.627 348.32 646.294 348.32C641.942 348.32 638.038 347.36 634.582 345.44C631.169 343.477 628.502 340.768 626.582 337.312C624.662 333.856 623.702 329.909 623.702 325.472ZM685.252 311.84V320.928H699.908V329.376H685.252V339.232H701.828V348H674.308V303.072H701.828V311.84H685.252ZM725.189 348.448C721.904 348.448 718.96 347.915 716.357 346.848C713.754 345.781 711.664 344.203 710.085 342.112C708.549 340.021 707.738 337.504 707.653 334.56H719.301C719.472 336.224 720.048 337.504 721.029 338.4C722.01 339.253 723.29 339.68 724.869 339.68C726.49 339.68 727.77 339.317 728.709 338.592C729.648 337.824 730.117 336.779 730.117 335.456C730.117 334.347 729.733 333.429 728.965 332.704C728.24 331.979 727.322 331.381 726.213 330.912C725.146 330.443 723.61 329.909 721.605 329.312C718.704 328.416 716.336 327.52 714.501 326.624C712.666 325.728 711.088 324.405 709.765 322.656C708.442 320.907 707.781 318.624 707.781 315.808C707.781 311.627 709.296 308.363 712.325 306.016C715.354 303.627 719.301 302.432 724.165 302.432C729.114 302.432 733.104 303.627 736.133 306.016C739.162 308.363 740.784 311.648 740.997 315.872H729.157C729.072 314.421 728.538 313.291 727.557 312.48C726.576 311.627 725.317 311.2 723.781 311.2C722.458 311.2 721.392 311.563 720.581 312.288C719.77 312.971 719.365 313.973 719.365 315.296C719.365 316.747 720.048 317.877 721.413 318.688C722.778 319.499 724.912 320.373 727.813 321.312C730.714 322.293 733.061 323.232 734.853 324.128C736.688 325.024 738.266 326.325 739.589 328.032C740.912 329.739 741.573 331.936 741.573 334.624C741.573 337.184 740.912 339.509 739.589 341.6C738.309 343.691 736.432 345.355 733.957 346.592C731.482 347.829 728.56 348.448 725.189 348.448ZM789.838 340.064H773.07L770.382 348H758.926L775.182 303.072H787.854L804.11 348H792.526L789.838 340.064ZM787.022 331.616L781.454 315.168L775.95 331.616H787.022ZM831.97 348L822.626 331.04H820.002V348H809.058V303.072H827.426C830.967 303.072 833.975 303.691 836.45 304.928C838.967 306.165 840.845 307.872 842.082 310.048C843.319 312.181 843.938 314.571 843.938 317.216C843.938 320.203 843.085 322.869 841.378 325.216C839.714 327.563 837.239 329.227 833.954 330.208L844.322 348H831.97ZM820.002 323.296H826.786C828.791 323.296 830.285 322.805 831.266 321.824C832.29 320.843 832.802 319.456 832.802 317.664C832.802 315.957 832.29 314.613 831.266 313.632C830.285 312.651 828.791 312.16 826.786 312.16H820.002V323.296ZM861.752 311.84V320.928H876.408V329.376H861.752V339.232H878.328V348H850.808V303.072H878.328V311.84H861.752ZM926.963 340.064H910.195L907.507 348H896.051L912.307 303.072H924.979L941.235 348H929.651L926.963 340.064ZM924.147 331.616L918.579 315.168L913.075 331.616H924.147ZM957.127 339.552H971.463V348H946.183V303.072H957.127V339.552ZM992.939 348.448C989.654 348.448 986.71 347.915 984.107 346.848C981.504 345.781 979.414 344.203 977.835 342.112C976.299 340.021 975.488 337.504 975.403 334.56H987.051C987.222 336.224 987.798 337.504 988.779 338.4C989.76 339.253 991.04 339.68 992.619 339.68C994.24 339.68 995.52 339.317 996.459 338.592C997.398 337.824 997.867 336.779 997.867 335.456C997.867 334.347 997.483 333.429 996.715 332.704C995.99 331.979 995.072 331.381 993.963 330.912C992.896 330.443 991.36 329.909 989.355 329.312C986.454 328.416 984.086 327.52 982.251 326.624C980.416 325.728 978.838 324.405 977.515 322.656C976.192 320.907 975.531 318.624 975.531 315.808C975.531 311.627 977.046 308.363 980.075 306.016C983.104 303.627 987.051 302.432 991.915 302.432C996.864 302.432 1000.85 303.627 1003.88 306.016C1006.91 308.363 1008.53 311.648 1008.75 315.872H996.907C996.822 314.421 996.288 313.291 995.307 312.48C994.326 311.627 993.067 311.2 991.531 311.2C990.208 311.2 989.142 311.563 988.331 312.288C987.52 312.971 987.115 313.973 987.115 315.296C987.115 316.747 987.798 317.877 989.163 318.688C990.528 319.499 992.662 320.373 995.563 321.312C998.464 322.293 1000.81 323.232 1002.6 324.128C1004.44 325.024 1006.02 326.325 1007.34 328.032C1008.66 329.739 1009.32 331.936 1009.32 334.624C1009.32 337.184 1008.66 339.509 1007.34 341.6C1006.06 343.691 1004.18 345.355 1001.71 346.592C999.232 347.829 996.31 348.448 992.939 348.448ZM1037.31 348.448C1033.08 348.448 1029.2 347.467 1025.66 345.504C1022.16 343.541 1019.36 340.811 1017.27 337.312C1015.23 333.771 1014.2 329.803 1014.2 325.408C1014.2 321.013 1015.23 317.067 1017.27 313.568C1019.36 310.069 1022.16 307.339 1025.66 305.376C1029.2 303.413 1033.08 302.432 1037.31 302.432C1041.53 302.432 1045.39 303.413 1048.89 305.376C1052.43 307.339 1055.2 310.069 1057.21 313.568C1059.26 317.067 1060.28 321.013 1060.28 325.408C1060.28 329.803 1059.26 333.771 1057.21 337.312C1055.16 340.811 1052.39 343.541 1048.89 345.504C1045.39 347.467 1041.53 348.448 1037.31 348.448ZM1037.31 338.464C1040.89 338.464 1043.75 337.269 1045.88 334.88C1048.06 332.491 1049.15 329.333 1049.15 325.408C1049.15 321.44 1048.06 318.283 1045.88 315.936C1043.75 313.547 1040.89 312.352 1037.31 312.352C1033.68 312.352 1030.78 313.525 1028.6 315.872C1026.47 318.219 1025.4 321.397 1025.4 325.408C1025.4 329.376 1026.47 332.555 1028.6 334.944C1030.78 337.291 1033.68 338.464 1037.31 338.464ZM1107.9 340.064H1091.13L1088.44 348H1076.99L1093.24 303.072H1105.92L1122.17 348H1110.59L1107.9 340.064ZM1105.08 331.616L1099.52 315.168L1094.01 331.616H1105.08ZM1169.3 303.072L1153.36 348H1139.66L1123.73 303.072H1135.38L1146.51 336.992L1157.71 303.072H1169.3ZM1201.84 340.064H1185.07L1182.38 348H1170.93L1187.18 303.072H1199.85L1216.11 348H1204.53L1201.84 340.064ZM1199.02 331.616L1193.45 315.168L1187.95 331.616H1199.02ZM1232 303.072V348H1221.06V303.072H1232ZM1250.88 339.552H1265.21V348H1239.93V303.072H1250.88V339.552ZM1298.4 340.064H1281.63L1278.94 348H1267.49L1283.74 303.072H1296.42L1312.67 348H1301.09L1298.4 340.064ZM1295.58 331.616L1290.02 315.168L1284.51 331.616H1295.58ZM1344.82 324.96C1347.42 325.515 1349.51 326.816 1351.09 328.864C1352.67 330.869 1353.46 333.173 1353.46 335.776C1353.46 339.531 1352.14 342.517 1349.49 344.736C1346.89 346.912 1343.24 348 1338.55 348H1317.62V303.072H1337.84C1342.41 303.072 1345.97 304.117 1348.53 306.208C1351.14 308.299 1352.44 311.136 1352.44 314.72C1352.44 317.365 1351.73 319.563 1350.32 321.312C1348.96 323.061 1347.12 324.277 1344.82 324.96ZM1328.56 321.248H1335.73C1337.52 321.248 1338.89 320.864 1339.83 320.096C1340.81 319.285 1341.3 318.112 1341.3 316.576C1341.3 315.04 1340.81 313.867 1339.83 313.056C1338.89 312.245 1337.52 311.84 1335.73 311.84H1328.56V321.248ZM1336.63 339.168C1338.46 339.168 1339.87 338.763 1340.85 337.952C1341.88 337.099 1342.39 335.883 1342.39 334.304C1342.39 332.725 1341.86 331.488 1340.79 330.592C1339.76 329.696 1338.34 329.248 1336.5 329.248H1328.56V339.168H1336.63ZM1370.75 339.552H1385.09V348H1359.81V303.072H1370.75V339.552ZM1401.25 311.84V320.928H1415.91V329.376H1401.25V339.232H1417.83V348H1390.31V303.072H1417.83V311.84H1401.25ZM1470.82 303.072V311.84H1458.91V348H1447.97V311.84H1436.06V303.072H1470.82ZM1497.56 348.448C1493.33 348.448 1489.45 347.467 1485.91 345.504C1482.41 343.541 1479.61 340.811 1477.52 337.312C1475.48 333.771 1474.45 329.803 1474.45 325.408C1474.45 321.013 1475.48 317.067 1477.52 313.568C1479.61 310.069 1482.41 307.339 1485.91 305.376C1489.45 303.413 1493.33 302.432 1497.56 302.432C1501.78 302.432 1505.64 303.413 1509.14 305.376C1512.68 307.339 1515.45 310.069 1517.46 313.568C1519.51 317.067 1520.53 321.013 1520.53 325.408C1520.53 329.803 1519.51 333.771 1517.46 337.312C1515.41 340.811 1512.64 343.541 1509.14 345.504C1505.64 347.467 1501.78 348.448 1497.56 348.448ZM1497.56 338.464C1501.14 338.464 1504 337.269 1506.13 334.88C1508.31 332.491 1509.4 329.333 1509.4 325.408C1509.4 321.44 1508.31 318.283 1506.13 315.936C1504 313.547 1501.14 312.352 1497.56 312.352C1493.93 312.352 1491.03 313.525 1488.85 315.872C1486.72 318.219 1485.65 321.397 1485.65 325.408C1485.65 329.376 1486.72 332.555 1488.85 334.944C1491.03 337.291 1493.93 338.464 1497.56 338.464ZM354.883 420.96C357.486 421.515 359.576 422.816 361.155 424.864C362.734 426.869 363.523 429.173 363.523 431.776C363.523 435.531 362.2 438.517 359.555 440.736C356.952 442.912 353.304 444 348.611 444H327.683V399.072H347.907C352.472 399.072 356.035 400.117 358.595 402.208C361.198 404.299 362.499 407.136 362.499 410.72C362.499 413.365 361.795 415.563 360.387 417.312C359.022 419.061 357.187 420.277 354.883 420.96ZM338.627 417.248H345.795C347.587 417.248 348.952 416.864 349.891 416.096C350.872 415.285 351.363 414.112 351.363 412.576C351.363 411.04 350.872 409.867 349.891 409.056C348.952 408.245 347.587 407.84 345.795 407.84H338.627V417.248ZM346.691 435.168C348.526 435.168 349.934 434.763 350.915 433.952C351.939 433.099 352.451 431.883 352.451 430.304C352.451 428.725 351.918 427.488 350.851 426.592C349.827 425.696 348.398 425.248 346.563 425.248H338.627V435.168H346.691ZM380.814 407.84V416.928H395.47V425.376H380.814V435.232H397.39V444H369.87V399.072H397.39V407.84H380.814ZM446.026 436.064H429.258L426.57 444H415.114L431.37 399.072H444.042L460.298 444H448.714L446.026 436.064ZM443.21 427.616L437.642 411.168L432.138 427.616H443.21ZM463.389 421.472C463.389 417.035 464.349 413.088 466.269 409.632C468.189 406.133 470.856 403.424 474.269 401.504C477.725 399.541 481.629 398.56 485.981 398.56C491.315 398.56 495.88 399.968 499.677 402.784C503.475 405.6 506.013 409.44 507.293 414.304H495.261C494.365 412.427 493.085 410.997 491.421 410.016C489.8 409.035 487.944 408.544 485.853 408.544C482.483 408.544 479.752 409.717 477.661 412.064C475.571 414.411 474.525 417.547 474.525 421.472C474.525 425.397 475.571 428.533 477.661 430.88C479.752 433.227 482.483 434.4 485.853 434.4C487.944 434.4 489.8 433.909 491.421 432.928C493.085 431.947 494.365 430.517 495.261 428.64H507.293C506.013 433.504 503.475 437.344 499.677 440.16C495.88 442.933 491.315 444.32 485.981 444.32C481.629 444.32 477.725 443.36 474.269 441.44C470.856 439.477 468.189 436.768 466.269 433.312C464.349 429.856 463.389 425.909 463.389 421.472ZM512.139 421.472C512.139 417.035 513.099 413.088 515.019 409.632C516.939 406.133 519.606 403.424 523.019 401.504C526.475 399.541 530.379 398.56 534.731 398.56C540.065 398.56 544.63 399.968 548.427 402.784C552.225 405.6 554.763 409.44 556.043 414.304H544.011C543.115 412.427 541.835 410.997 540.171 410.016C538.55 409.035 536.694 408.544 534.603 408.544C531.233 408.544 528.502 409.717 526.411 412.064C524.321 414.411 523.275 417.547 523.275 421.472C523.275 425.397 524.321 428.533 526.411 430.88C528.502 433.227 531.233 434.4 534.603 434.4C536.694 434.4 538.55 433.909 540.171 432.928C541.835 431.947 543.115 430.517 544.011 428.64H556.043C554.763 433.504 552.225 437.344 548.427 440.16C544.63 442.933 540.065 444.32 534.731 444.32C530.379 444.32 526.475 443.36 523.019 441.44C519.606 439.477 516.939 436.768 515.019 433.312C513.099 429.856 512.139 425.909 512.139 421.472ZM573.689 407.84V416.928H588.345V425.376H573.689V435.232H590.265V444H562.745V399.072H590.265V407.84H573.689ZM613.626 444.448C610.341 444.448 607.397 443.915 604.794 442.848C602.192 441.781 600.101 440.203 598.522 438.112C596.986 436.021 596.176 433.504 596.09 430.56H607.738C607.909 432.224 608.485 433.504 609.466 434.4C610.448 435.253 611.728 435.68 613.306 435.68C614.928 435.68 616.208 435.317 617.146 434.592C618.085 433.824 618.554 432.779 618.554 431.456C618.554 430.347 618.17 429.429 617.402 428.704C616.677 427.979 615.76 427.381 614.65 426.912C613.584 426.443 612.048 425.909 610.042 425.312C607.141 424.416 604.773 423.52 602.938 422.624C601.104 421.728 599.525 420.405 598.202 418.656C596.88 416.907 596.218 414.624 596.218 411.808C596.218 407.627 597.733 404.363 600.762 402.016C603.792 399.627 607.738 398.432 612.602 398.432C617.552 398.432 621.541 399.627 624.57 402.016C627.6 404.363 629.221 407.648 629.434 411.872H617.594C617.509 410.421 616.976 409.291 615.994 408.48C615.013 407.627 613.754 407.2 612.218 407.2C610.896 407.2 609.829 407.563 609.018 408.288C608.208 408.971 607.802 409.973 607.802 411.296C607.802 412.747 608.485 413.877 609.85 414.688C611.216 415.499 613.349 416.373 616.25 417.312C619.152 418.293 621.498 419.232 623.29 420.128C625.125 421.024 626.704 422.325 628.026 424.032C629.349 425.739 630.01 427.936 630.01 430.624C630.01 433.184 629.349 435.509 628.026 437.6C626.746 439.691 624.869 441.355 622.394 442.592C619.92 443.829 616.997 444.448 613.626 444.448ZM653.001 444.448C649.716 444.448 646.772 443.915 644.169 442.848C641.567 441.781 639.476 440.203 637.897 438.112C636.361 436.021 635.551 433.504 635.465 430.56H647.113C647.284 432.224 647.86 433.504 648.841 434.4C649.823 435.253 651.103 435.68 652.681 435.68C654.303 435.68 655.583 435.317 656.521 434.592C657.46 433.824 657.929 432.779 657.929 431.456C657.929 430.347 657.545 429.429 656.777 428.704C656.052 427.979 655.135 427.381 654.025 426.912C652.959 426.443 651.423 425.909 649.417 425.312C646.516 424.416 644.148 423.52 642.313 422.624C640.479 421.728 638.9 420.405 637.577 418.656C636.255 416.907 635.593 414.624 635.593 411.808C635.593 407.627 637.108 404.363 640.137 402.016C643.167 399.627 647.113 398.432 651.977 398.432C656.927 398.432 660.916 399.627 663.945 402.016C666.975 404.363 668.596 407.648 668.809 411.872H656.969C656.884 410.421 656.351 409.291 655.369 408.48C654.388 407.627 653.129 407.2 651.593 407.2C650.271 407.2 649.204 407.563 648.393 408.288C647.583 408.971 647.177 409.973 647.177 411.296C647.177 412.747 647.86 413.877 649.225 414.688C650.591 415.499 652.724 416.373 655.625 417.312C658.527 418.293 660.873 419.232 662.665 420.128C664.5 421.024 666.079 422.325 667.401 424.032C668.724 425.739 669.385 427.936 669.385 430.624C669.385 433.184 668.724 435.509 667.401 437.6C666.121 439.691 664.244 441.355 661.769 442.592C659.295 443.829 656.372 444.448 653.001 444.448ZM687.064 407.84V416.928H701.72V425.376H687.064V435.232H703.64V444H676.12V399.072H703.64V407.84H687.064ZM727.577 399.072C732.313 399.072 736.452 400.011 739.993 401.888C743.535 403.765 746.265 406.411 748.185 409.824C750.148 413.195 751.129 417.099 751.129 421.536C751.129 425.931 750.148 429.835 748.185 433.248C746.265 436.661 743.513 439.307 739.929 441.184C736.388 443.061 732.271 444 727.577 444H710.745V399.072H727.577ZM726.873 434.528C731.012 434.528 734.233 433.397 736.537 431.136C738.841 428.875 739.993 425.675 739.993 421.536C739.993 417.397 738.841 414.176 736.537 411.872C734.233 409.568 731.012 408.416 726.873 408.416H721.689V434.528H726.873ZM803.128 399.072V407.84H791.224V444H780.28V407.84H768.376V399.072H803.128ZM847.532 399.072V444H836.588V425.504H819.564V444H808.62V399.072H819.564V416.672H836.588V399.072H847.532ZM878.345 444L869.001 427.04H866.377V444H855.433V399.072H873.801C877.342 399.072 880.35 399.691 882.825 400.928C885.342 402.165 887.22 403.872 888.457 406.048C889.694 408.181 890.313 410.571 890.313 413.216C890.313 416.203 889.46 418.869 887.753 421.216C886.089 423.563 883.614 425.227 880.329 426.208L890.697 444H878.345ZM866.377 419.296H873.161C875.166 419.296 876.66 418.805 877.641 417.824C878.665 416.843 879.177 415.456 879.177 413.664C879.177 411.957 878.665 410.613 877.641 409.632C876.66 408.651 875.166 408.16 873.161 408.16H866.377V419.296ZM918.431 444.448C914.207 444.448 910.324 443.467 906.783 441.504C903.284 439.541 900.49 436.811 898.399 433.312C896.351 429.771 895.327 425.803 895.327 421.408C895.327 417.013 896.351 413.067 898.399 409.568C900.49 406.069 903.284 403.339 906.783 401.376C910.324 399.413 914.207 398.432 918.431 398.432C922.655 398.432 926.516 399.413 930.015 401.376C933.556 403.339 936.33 406.069 938.335 409.568C940.383 413.067 941.407 417.013 941.407 421.408C941.407 425.803 940.383 429.771 938.335 433.312C936.287 436.811 933.514 439.541 930.015 441.504C926.516 443.467 922.655 444.448 918.431 444.448ZM918.431 434.464C922.015 434.464 924.874 433.269 927.007 430.88C929.183 428.491 930.271 425.333 930.271 421.408C930.271 417.44 929.183 414.283 927.007 411.936C924.874 409.547 922.015 408.352 918.431 408.352C914.804 408.352 911.903 409.525 909.727 411.872C907.594 414.219 906.527 417.397 906.527 421.408C906.527 425.376 907.594 428.555 909.727 430.944C911.903 433.291 914.804 434.464 918.431 434.464ZM958.247 399.072V425.952C958.247 428.64 958.909 430.709 960.231 432.16C961.554 433.611 963.495 434.336 966.055 434.336C968.615 434.336 970.578 433.611 971.943 432.16C973.309 430.709 973.991 428.64 973.991 425.952V399.072H984.935V425.888C984.935 429.899 984.082 433.291 982.375 436.064C980.669 438.837 978.365 440.928 975.463 442.336C972.605 443.744 969.405 444.448 965.863 444.448C962.322 444.448 959.143 443.765 956.327 442.4C953.554 440.992 951.357 438.901 949.735 436.128C948.114 433.312 947.303 429.899 947.303 425.888V399.072H958.247ZM1022.44 413.28C1021.63 411.787 1020.46 410.656 1018.92 409.888C1017.43 409.077 1015.66 408.672 1013.61 408.672C1010.07 408.672 1007.23 409.845 1005.1 412.192C1002.97 414.496 1001.9 417.589 1001.9 421.472C1001.9 425.611 1003.01 428.853 1005.23 431.2C1007.49 433.504 1010.58 434.656 1014.51 434.656C1017.2 434.656 1019.46 433.973 1021.29 432.608C1023.17 431.243 1024.54 429.28 1025.39 426.72H1011.5V418.656H1035.31V428.832C1034.5 431.563 1033.11 434.101 1031.15 436.448C1029.23 438.795 1026.78 440.693 1023.79 442.144C1020.8 443.595 1017.43 444.32 1013.68 444.32C1009.24 444.32 1005.27 443.36 1001.77 441.44C998.316 439.477 995.607 436.768 993.644 433.312C991.724 429.856 990.764 425.909 990.764 421.472C990.764 417.035 991.724 413.088 993.644 409.632C995.607 406.133 998.316 403.424 1001.77 401.504C1005.23 399.541 1009.18 398.56 1013.61 398.56C1018.99 398.56 1023.51 399.861 1027.18 402.464C1030.89 405.067 1033.35 408.672 1034.54 413.28H1022.44ZM1080.28 399.072V444H1069.34V425.504H1052.31V444H1041.37V399.072H1052.31V416.672H1069.34V399.072H1080.28ZM1163.57 399.072L1151.86 444H1138.61L1131.44 414.432L1124.02 444H1110.77L1099.38 399.072H1111.09L1117.55 431.776L1125.55 399.072H1137.59L1145.27 431.776L1151.79 399.072H1163.57ZM1207.97 399.072V444H1197.03V425.504H1180V444H1169.06V399.072H1180V416.672H1197.03V399.072H1207.97ZM1243.84 436.064H1227.07L1224.38 444H1212.93L1229.18 399.072H1241.85L1258.11 444H1246.53L1243.84 436.064ZM1241.02 427.616L1235.45 411.168L1229.95 427.616H1241.02ZM1295.38 399.072V407.84H1283.47V444H1272.53V407.84H1260.63V399.072H1295.38ZM1317.13 444.448C1313.84 444.448 1310.9 443.915 1308.29 442.848C1305.69 441.781 1303.6 440.203 1302.02 438.112C1300.49 436.021 1299.68 433.504 1299.59 430.56H1311.24C1311.41 432.224 1311.99 433.504 1312.97 434.4C1313.95 435.253 1315.23 435.68 1316.81 435.68C1318.43 435.68 1319.71 435.317 1320.65 434.592C1321.59 433.824 1322.05 432.779 1322.05 431.456C1322.05 430.347 1321.67 429.429 1320.9 428.704C1320.18 427.979 1319.26 427.381 1318.15 426.912C1317.08 426.443 1315.55 425.909 1313.54 425.312C1310.64 424.416 1308.27 423.52 1306.44 422.624C1304.6 421.728 1303.03 420.405 1301.7 418.656C1300.38 416.907 1299.72 414.624 1299.72 411.808C1299.72 407.627 1301.23 404.363 1304.26 402.016C1307.29 399.627 1311.24 398.432 1316.1 398.432C1321.05 398.432 1325.04 399.627 1328.07 402.016C1331.1 404.363 1332.72 407.648 1332.93 411.872H1321.09C1321.01 410.421 1320.48 409.291 1319.49 408.48C1318.51 407.627 1317.25 407.2 1315.72 407.2C1314.4 407.2 1313.33 407.563 1312.52 408.288C1311.71 408.971 1311.3 409.973 1311.3 411.296C1311.3 412.747 1311.99 413.877 1313.35 414.688C1314.72 415.499 1316.85 416.373 1319.75 417.312C1322.65 418.293 1325 419.232 1326.79 420.128C1328.63 421.024 1330.2 422.325 1331.53 424.032C1332.85 425.739 1333.51 427.936 1333.51 430.624C1333.51 433.184 1332.85 435.509 1331.53 437.6C1330.25 439.691 1328.37 441.355 1325.89 442.592C1323.42 443.829 1320.5 444.448 1317.13 444.448ZM1368.21 436.064H1351.45L1348.76 444H1337.3L1353.56 399.072H1366.23L1382.49 444H1370.9L1368.21 436.064ZM1365.4 427.616L1359.83 411.168L1354.33 427.616H1365.4ZM1421.67 413.536C1421.67 416.139 1421.08 418.528 1419.88 420.704C1418.69 422.837 1416.85 424.565 1414.38 425.888C1411.9 427.211 1408.83 427.872 1405.16 427.872H1398.38V444H1387.43V399.072H1405.16C1408.74 399.072 1411.77 399.691 1414.25 400.928C1416.72 402.165 1418.58 403.872 1419.82 406.048C1421.05 408.224 1421.67 410.72 1421.67 413.536ZM1404.33 419.168C1406.42 419.168 1407.98 418.677 1409 417.696C1410.02 416.715 1410.54 415.328 1410.54 413.536C1410.54 411.744 1410.02 410.357 1409 409.376C1407.98 408.395 1406.42 407.904 1404.33 407.904H1398.38V419.168H1404.33ZM1461.61 413.536C1461.61 416.139 1461.01 418.528 1459.82 420.704C1458.62 422.837 1456.79 424.565 1454.31 425.888C1451.84 427.211 1448.77 427.872 1445.1 427.872H1438.31V444H1427.37V399.072H1445.1C1448.68 399.072 1451.71 399.691 1454.19 400.928C1456.66 402.165 1458.52 403.872 1459.75 406.048C1460.99 408.224 1461.61 410.72 1461.61 413.536ZM1444.27 419.168C1446.36 419.168 1447.91 418.677 1448.94 417.696C1449.96 416.715 1450.47 415.328 1450.47 413.536C1450.47 411.744 1449.96 410.357 1448.94 409.376C1447.91 408.395 1446.36 407.904 1444.27 407.904H1438.31V419.168H1444.27ZM1481.71 397.472L1480.43 428.128H1471.15L1469.87 397.472H1481.71ZM1475.95 444.512C1474.03 444.512 1472.45 443.957 1471.21 442.848C1470.02 441.696 1469.42 440.288 1469.42 438.624C1469.42 436.917 1470.02 435.488 1471.21 434.336C1472.45 433.184 1474.03 432.608 1475.95 432.608C1477.83 432.608 1479.36 433.184 1480.56 434.336C1481.79 435.488 1482.41 436.917 1482.41 438.624C1482.41 440.288 1481.79 441.696 1480.56 442.848C1479.36 443.957 1477.83 444.512 1475.95 444.512Z" fill="white"/>
<path d="M321.304 572.04H311.576L309.784 577H306.712L314.776 554.824H318.136L326.168 577H323.096L321.304 572.04ZM320.472 569.672L316.44 558.408L312.408 569.672H320.472ZM328.595 568.2C328.595 566.387 328.957 564.808 329.683 563.464C330.408 562.099 331.411 561.043 332.691 560.296C333.992 559.549 335.475 559.176 337.139 559.176C339.293 559.176 341.064 559.699 342.451 560.744C343.859 561.789 344.787 563.24 345.235 565.096H342.099C341.8 564.029 341.213 563.187 340.339 562.568C339.485 561.949 338.419 561.64 337.139 561.64C335.475 561.64 334.131 562.216 333.107 563.368C332.083 564.499 331.571 566.109 331.571 568.2C331.571 570.312 332.083 571.944 333.107 573.096C334.131 574.248 335.475 574.824 337.139 574.824C338.419 574.824 339.485 574.525 340.339 573.928C341.192 573.331 341.779 572.477 342.099 571.368H345.235C344.765 573.16 343.827 574.6 342.419 575.688C341.011 576.755 339.251 577.288 337.139 577.288C335.475 577.288 333.992 576.915 332.691 576.168C331.411 575.421 330.408 574.365 329.683 573C328.957 571.635 328.595 570.035 328.595 568.2ZM348.032 568.2C348.032 566.387 348.395 564.808 349.12 563.464C349.846 562.099 350.848 561.043 352.128 560.296C353.43 559.549 354.912 559.176 356.576 559.176C358.731 559.176 360.502 559.699 361.888 560.744C363.296 561.789 364.224 563.24 364.672 565.096H361.536C361.238 564.029 360.651 563.187 359.776 562.568C358.923 561.949 357.856 561.64 356.576 561.64C354.912 561.64 353.568 562.216 352.544 563.368C351.52 564.499 351.008 566.109 351.008 568.2C351.008 570.312 351.52 571.944 352.544 573.096C353.568 574.248 354.912 574.824 356.576 574.824C357.856 574.824 358.923 574.525 359.776 573.928C360.63 573.331 361.216 572.477 361.536 571.368H364.672C364.203 573.16 363.264 574.6 361.856 575.688C360.448 576.755 358.688 577.288 356.576 577.288C354.912 577.288 353.43 576.915 352.128 576.168C350.848 575.421 349.846 574.365 349.12 573C348.395 571.635 348.032 570.035 348.032 568.2ZM384.558 567.56C384.558 568.115 384.526 568.701 384.462 569.32H370.446C370.552 571.048 371.139 572.403 372.206 573.384C373.294 574.344 374.606 574.824 376.142 574.824C377.4 574.824 378.446 574.536 379.278 573.96C380.131 573.363 380.728 572.573 381.07 571.592H384.206C383.736 573.277 382.798 574.653 381.39 575.72C379.982 576.765 378.232 577.288 376.142 577.288C374.478 577.288 372.984 576.915 371.662 576.168C370.36 575.421 369.336 574.365 368.59 573C367.843 571.613 367.47 570.013 367.47 568.2C367.47 566.387 367.832 564.797 368.558 563.432C369.283 562.067 370.296 561.021 371.598 560.296C372.92 559.549 374.435 559.176 376.142 559.176C377.806 559.176 379.278 559.539 380.558 560.264C381.838 560.989 382.819 561.992 383.502 563.272C384.206 564.531 384.558 565.96 384.558 567.56ZM381.55 566.952C381.55 565.843 381.304 564.893 380.814 564.104C380.323 563.293 379.651 562.685 378.798 562.28C377.966 561.853 377.038 561.64 376.014 561.64C374.542 561.64 373.283 562.109 372.238 563.048C371.214 563.987 370.627 565.288 370.478 566.952H381.55ZM394.61 577.288C393.266 577.288 392.06 577.064 390.994 576.616C389.927 576.147 389.084 575.507 388.466 574.696C387.847 573.864 387.506 572.915 387.442 571.848H390.45C390.535 572.723 390.94 573.437 391.666 573.992C392.412 574.547 393.383 574.824 394.578 574.824C395.687 574.824 396.562 574.579 397.202 574.088C397.842 573.597 398.162 572.979 398.162 572.232C398.162 571.464 397.82 570.899 397.138 570.536C396.455 570.152 395.399 569.779 393.97 569.416C392.668 569.075 391.602 568.733 390.77 568.392C389.959 568.029 389.255 567.507 388.658 566.824C388.082 566.12 387.794 565.203 387.794 564.072C387.794 563.176 388.06 562.355 388.594 561.608C389.127 560.861 389.884 560.275 390.866 559.848C391.847 559.4 392.967 559.176 394.226 559.176C396.167 559.176 397.735 559.667 398.93 560.648C400.124 561.629 400.764 562.973 400.85 564.68H397.938C397.874 563.763 397.5 563.027 396.818 562.472C396.156 561.917 395.26 561.64 394.13 561.64C393.084 561.64 392.252 561.864 391.634 562.312C391.015 562.76 390.706 563.347 390.706 564.072C390.706 564.648 390.887 565.128 391.25 565.512C391.634 565.875 392.103 566.173 392.658 566.408C393.234 566.621 394.023 566.867 395.026 567.144C396.284 567.485 397.308 567.827 398.098 568.168C398.887 568.488 399.559 568.979 400.114 569.64C400.69 570.301 400.988 571.165 401.01 572.232C401.01 573.192 400.743 574.056 400.21 574.824C399.676 575.592 398.919 576.2 397.938 576.648C396.978 577.075 395.868 577.288 394.61 577.288ZM411.328 577.288C409.984 577.288 408.779 577.064 407.712 576.616C406.646 576.147 405.803 575.507 405.184 574.696C404.566 573.864 404.224 572.915 404.16 571.848H407.168C407.254 572.723 407.659 573.437 408.384 573.992C409.131 574.547 410.102 574.824 411.296 574.824C412.406 574.824 413.28 574.579 413.92 574.088C414.56 573.597 414.88 572.979 414.88 572.232C414.88 571.464 414.539 570.899 413.856 570.536C413.174 570.152 412.118 569.779 410.688 569.416C409.387 569.075 408.32 568.733 407.488 568.392C406.678 568.029 405.974 567.507 405.376 566.824C404.8 566.12 404.512 565.203 404.512 564.072C404.512 563.176 404.779 562.355 405.312 561.608C405.846 560.861 406.603 560.275 407.584 559.848C408.566 559.4 409.686 559.176 410.944 559.176C412.886 559.176 414.454 559.667 415.648 560.648C416.843 561.629 417.483 562.973 417.568 564.68H414.656C414.592 563.763 414.219 563.027 413.536 562.472C412.875 561.917 411.979 561.64 410.848 561.64C409.803 561.64 408.971 561.864 408.352 562.312C407.734 562.76 407.424 563.347 407.424 564.072C407.424 564.648 407.606 565.128 407.968 565.512C408.352 565.875 408.822 566.173 409.376 566.408C409.952 566.621 410.742 566.867 411.744 567.144C413.003 567.485 414.027 567.827 414.816 568.168C415.606 568.488 416.278 568.979 416.832 569.64C417.408 570.301 417.707 571.165 417.728 572.232C417.728 573.192 417.462 574.056 416.928 574.824C416.395 575.592 415.638 576.2 414.656 576.648C413.696 577.075 412.587 577.288 411.328 577.288ZM447.266 561.16C446.648 559.859 445.752 558.856 444.578 558.152C443.405 557.427 442.04 557.064 440.482 557.064C438.925 557.064 437.517 557.427 436.258 558.152C435.021 558.856 434.04 559.88 433.314 561.224C432.61 562.547 432.258 564.083 432.258 565.832C432.258 567.581 432.61 569.117 433.314 570.44C434.04 571.763 435.021 572.787 436.258 573.512C437.517 574.216 438.925 574.568 440.482 574.568C442.658 574.568 444.45 573.917 445.858 572.616C447.266 571.315 448.088 569.555 448.322 567.336H439.426V564.968H451.426V567.208C451.256 569.043 450.68 570.728 449.698 572.264C448.717 573.779 447.426 574.984 445.826 575.88C444.226 576.755 442.445 577.192 440.482 577.192C438.413 577.192 436.525 576.712 434.818 575.752C433.112 574.771 431.757 573.416 430.754 571.688C429.773 569.96 429.282 568.008 429.282 565.832C429.282 563.656 429.773 561.704 430.754 559.976C431.757 558.227 433.112 556.872 434.818 555.912C436.525 554.931 438.413 554.44 440.482 554.44C442.85 554.44 444.941 555.027 446.754 556.2C448.589 557.373 449.922 559.027 450.754 561.16H447.266ZM471.277 567.56C471.277 568.115 471.245 568.701 471.181 569.32H457.165C457.271 571.048 457.858 572.403 458.925 573.384C460.013 574.344 461.325 574.824 462.861 574.824C464.119 574.824 465.165 574.536 465.997 573.96C466.85 573.363 467.447 572.573 467.789 571.592H470.925C470.455 573.277 469.517 574.653 468.109 575.72C466.701 576.765 464.951 577.288 462.861 577.288C461.197 577.288 459.703 576.915 458.381 576.168C457.079 575.421 456.055 574.365 455.309 573C454.562 571.613 454.189 570.013 454.189 568.2C454.189 566.387 454.551 564.797 455.277 563.432C456.002 562.067 457.015 561.021 458.317 560.296C459.639 559.549 461.154 559.176 462.861 559.176C464.525 559.176 465.997 559.539 467.277 560.264C468.557 560.989 469.538 561.992 470.221 563.272C470.925 564.531 471.277 565.96 471.277 567.56ZM468.269 566.952C468.269 565.843 468.023 564.893 467.533 564.104C467.042 563.293 466.37 562.685 465.517 562.28C464.685 561.853 463.757 561.64 462.733 561.64C461.261 561.64 460.002 562.109 458.957 563.048C457.933 563.987 457.346 565.288 457.197 566.952H468.269ZM483.664 559.144C485.798 559.144 487.526 559.795 488.848 561.096C490.171 562.376 490.832 564.232 490.832 566.664V577H487.952V567.08C487.952 565.331 487.515 563.997 486.64 563.08C485.766 562.141 484.571 561.672 483.056 561.672C481.52 561.672 480.294 562.152 479.376 563.112C478.48 564.072 478.032 565.469 478.032 567.304V577H475.12V559.464H478.032V561.96C478.608 561.064 479.387 560.371 480.368 559.88C481.371 559.389 482.47 559.144 483.664 559.144ZM497.093 556.616C496.538 556.616 496.069 556.424 495.685 556.04C495.301 555.656 495.109 555.187 495.109 554.632C495.109 554.077 495.301 553.608 495.685 553.224C496.069 552.84 496.538 552.648 497.093 552.648C497.626 552.648 498.074 552.84 498.437 553.224C498.821 553.608 499.013 554.077 499.013 554.632C499.013 555.187 498.821 555.656 498.437 556.04C498.074 556.424 497.626 556.616 497.093 556.616ZM498.501 559.464V577H495.589V559.464H498.501ZM519.016 559.464V577H516.104V574.408C515.549 575.304 514.771 576.008 513.768 576.52C512.787 577.011 511.699 577.256 510.504 577.256C509.139 577.256 507.912 576.979 506.824 576.424C505.736 575.848 504.872 574.995 504.232 573.864C503.613 572.733 503.304 571.357 503.304 569.736V559.464H506.184V569.352C506.184 571.08 506.621 572.413 507.496 573.352C508.371 574.269 509.565 574.728 511.08 574.728C512.637 574.728 513.864 574.248 514.76 573.288C515.656 572.328 516.104 570.931 516.104 569.096V559.464H519.016ZM530.141 577.288C528.797 577.288 527.591 577.064 526.525 576.616C525.458 576.147 524.615 575.507 523.997 574.696C523.378 573.864 523.037 572.915 522.973 571.848H525.981C526.066 572.723 526.471 573.437 527.197 573.992C527.943 574.547 528.914 574.824 530.109 574.824C531.218 574.824 532.093 574.579 532.733 574.088C533.373 573.597 533.693 572.979 533.693 572.232C533.693 571.464 533.351 570.899 532.669 570.536C531.986 570.152 530.93 569.779 529.501 569.416C528.199 569.075 527.133 568.733 526.301 568.392C525.49 568.029 524.786 567.507 524.189 566.824C523.613 566.12 523.325 565.203 523.325 564.072C523.325 563.176 523.591 562.355 524.125 561.608C524.658 560.861 525.415 560.275 526.397 559.848C527.378 559.4 528.498 559.176 529.757 559.176C531.698 559.176 533.266 559.667 534.461 560.648C535.655 561.629 536.295 562.973 536.381 564.68H533.469C533.405 563.763 533.031 563.027 532.349 562.472C531.687 561.917 530.791 561.64 529.661 561.64C528.615 561.64 527.783 561.864 527.165 562.312C526.546 562.76 526.237 563.347 526.237 564.072C526.237 564.648 526.418 565.128 526.781 565.512C527.165 565.875 527.634 566.173 528.189 566.408C528.765 566.621 529.554 566.867 530.557 567.144C531.815 567.485 532.839 567.827 533.629 568.168C534.418 568.488 535.09 568.979 535.645 569.64C536.221 570.301 536.519 571.165 536.541 572.232C536.541 573.192 536.274 574.056 535.741 574.824C535.207 575.592 534.45 576.2 533.469 576.648C532.509 577.075 531.399 577.288 530.141 577.288ZM552.735 561.864V572.2C552.735 573.053 552.916 573.661 553.279 574.024C553.641 574.365 554.271 574.536 555.167 574.536H557.311V577H554.687C553.065 577 551.849 576.627 551.039 575.88C550.228 575.133 549.823 573.907 549.823 572.2V561.864H547.551V559.464H549.823V555.048H552.735V559.464H557.311V561.864H552.735ZM568.487 577.288C566.844 577.288 565.351 576.915 564.007 576.168C562.684 575.421 561.639 574.365 560.871 573C560.124 571.613 559.751 570.013 559.751 568.2C559.751 566.408 560.135 564.829 560.903 563.464C561.692 562.077 562.759 561.021 564.103 560.296C565.447 559.549 566.951 559.176 568.615 559.176C570.279 559.176 571.783 559.549 573.127 560.296C574.471 561.021 575.527 562.067 576.295 563.432C577.084 564.797 577.479 566.387 577.479 568.2C577.479 570.013 577.074 571.613 576.263 573C575.474 574.365 574.396 575.421 573.031 576.168C571.666 576.915 570.151 577.288 568.487 577.288ZM568.487 574.728C569.532 574.728 570.514 574.483 571.431 573.992C572.348 573.501 573.084 572.765 573.639 571.784C574.215 570.803 574.503 569.608 574.503 568.2C574.503 566.792 574.226 565.597 573.671 564.616C573.116 563.635 572.391 562.909 571.495 562.44C570.599 561.949 569.628 561.704 568.583 561.704C567.516 561.704 566.535 561.949 565.639 562.44C564.764 562.909 564.06 563.635 563.527 564.616C562.994 565.597 562.727 566.792 562.727 568.2C562.727 569.629 562.983 570.835 563.495 571.816C564.028 572.797 564.732 573.533 565.607 574.024C566.482 574.493 567.442 574.728 568.487 574.728ZM592.751 553.32V577H589.839V553.32H592.751ZM613.714 567.56C613.714 568.115 613.682 568.701 613.618 569.32H599.602C599.709 571.048 600.295 572.403 601.362 573.384C602.45 574.344 603.762 574.824 605.298 574.824C606.557 574.824 607.602 574.536 608.434 573.96C609.287 573.363 609.885 572.573 610.226 571.592H613.362C612.893 573.277 611.954 574.653 610.546 575.72C609.138 576.765 607.389 577.288 605.298 577.288C603.634 577.288 602.141 576.915 600.818 576.168C599.517 575.421 598.493 574.365 597.746 573C596.999 571.613 596.626 570.013 596.626 568.2C596.626 566.387 596.989 564.797 597.714 563.432C598.439 562.067 599.453 561.021 600.754 560.296C602.077 559.549 603.591 559.176 605.298 559.176C606.962 559.176 608.434 559.539 609.714 560.264C610.994 560.989 611.975 561.992 612.658 563.272C613.362 564.531 613.714 565.96 613.714 567.56ZM610.706 566.952C610.706 565.843 610.461 564.893 609.97 564.104C609.479 563.293 608.807 562.685 607.954 562.28C607.122 561.853 606.194 561.64 605.17 561.64C603.698 561.64 602.439 562.109 601.394 563.048C600.37 563.987 599.783 565.288 599.634 566.952H610.706ZM616.47 568.168C616.47 566.376 616.832 564.808 617.558 563.464C618.283 562.099 619.275 561.043 620.534 560.296C621.814 559.549 623.232 559.176 624.79 559.176C626.326 559.176 627.659 559.507 628.79 560.168C629.92 560.829 630.763 561.661 631.318 562.664V559.464H634.262V577H631.318V573.736C630.742 574.76 629.878 575.613 628.726 576.296C627.595 576.957 626.272 577.288 624.758 577.288C623.2 577.288 621.792 576.904 620.534 576.136C619.275 575.368 618.283 574.291 617.558 572.904C616.832 571.517 616.47 569.939 616.47 568.168ZM631.318 568.2C631.318 566.877 631.051 565.725 630.518 564.744C629.984 563.763 629.259 563.016 628.342 562.504C627.446 561.971 626.454 561.704 625.366 561.704C624.278 561.704 623.286 561.96 622.39 562.472C621.494 562.984 620.779 563.731 620.246 564.712C619.712 565.693 619.446 566.845 619.446 568.168C619.446 569.512 619.712 570.685 620.246 571.688C620.779 572.669 621.494 573.427 622.39 573.96C623.286 574.472 624.278 574.728 625.366 574.728C626.454 574.728 627.446 574.472 628.342 573.96C629.259 573.427 629.984 572.669 630.518 571.688C631.051 570.685 631.318 569.523 631.318 568.2ZM642.095 562.312C642.607 561.309 643.332 560.531 644.271 559.976C645.231 559.421 646.393 559.144 647.759 559.144V562.152H646.991C643.727 562.152 642.095 563.923 642.095 567.464V577H639.183V559.464H642.095V562.312ZM659.664 559.144C661.798 559.144 663.526 559.795 664.848 561.096C666.171 562.376 666.832 564.232 666.832 566.664V577H663.952V567.08C663.952 565.331 663.515 563.997 662.64 563.08C661.766 562.141 660.571 561.672 659.056 561.672C657.52 561.672 656.294 562.152 655.376 563.112C654.48 564.072 654.032 565.469 654.032 567.304V577H651.12V559.464H654.032V561.96C654.608 561.064 655.387 560.371 656.368 559.88C657.371 559.389 658.47 559.144 659.664 559.144ZM679.032 568.168C679.032 566.376 679.395 564.808 680.12 563.464C680.846 562.099 681.838 561.043 683.096 560.296C684.376 559.549 685.795 559.176 687.352 559.176C688.888 559.176 690.222 559.507 691.352 560.168C692.483 560.829 693.326 561.661 693.88 562.664V559.464H696.824V577H693.88V573.736C693.304 574.76 692.44 575.613 691.288 576.296C690.158 576.957 688.835 577.288 687.32 577.288C685.763 577.288 684.355 576.904 683.096 576.136C681.838 575.368 680.846 574.291 680.12 572.904C679.395 571.517 679.032 569.939 679.032 568.168ZM693.88 568.2C693.88 566.877 693.614 565.725 693.08 564.744C692.547 563.763 691.822 563.016 690.904 562.504C690.008 561.971 689.016 561.704 687.928 561.704C686.84 561.704 685.848 561.96 684.952 562.472C684.056 562.984 683.342 563.731 682.808 564.712C682.275 565.693 682.008 566.845 682.008 568.168C682.008 569.512 682.275 570.685 682.808 571.688C683.342 572.669 684.056 573.427 684.952 573.96C685.848 574.472 686.84 574.728 687.928 574.728C689.016 574.728 690.008 574.472 690.904 573.96C691.822 573.427 692.547 572.669 693.08 571.688C693.614 570.685 693.88 569.523 693.88 568.2ZM710.289 559.144C712.423 559.144 714.151 559.795 715.473 561.096C716.796 562.376 717.457 564.232 717.457 566.664V577H714.577V567.08C714.577 565.331 714.14 563.997 713.265 563.08C712.391 562.141 711.196 561.672 709.681 561.672C708.145 561.672 706.919 562.152 706.001 563.112C705.105 564.072 704.657 565.469 704.657 567.304V577H701.745V559.464H704.657V561.96C705.233 561.064 706.012 560.371 706.993 559.88C707.996 559.389 709.095 559.144 710.289 559.144ZM737.318 559.464L726.758 585.256H723.75L727.206 576.808L720.134 559.464H723.366L728.87 573.672L734.31 559.464H737.318ZM743.797 561.864V572.2C743.797 573.053 743.979 573.661 744.341 574.024C744.704 574.365 745.333 574.536 746.229 574.536H748.373V577H745.749C744.128 577 742.912 576.627 742.101 575.88C741.291 575.133 740.885 573.907 740.885 572.2V561.864H738.613V559.464H740.885V555.048H743.797V559.464H748.373V561.864H743.797ZM753.406 556.616C752.851 556.616 752.382 556.424 751.998 556.04C751.614 555.656 751.422 555.187 751.422 554.632C751.422 554.077 751.614 553.608 751.998 553.224C752.382 552.84 752.851 552.648 753.406 552.648C753.939 552.648 754.387 552.84 754.75 553.224C755.134 553.608 755.326 554.077 755.326 554.632C755.326 555.187 755.134 555.656 754.75 556.04C754.387 556.424 753.939 556.616 753.406 556.616ZM754.814 559.464V577H751.902V559.464H754.814ZM780.865 559.144C782.23 559.144 783.446 559.432 784.513 560.008C785.579 560.563 786.422 561.405 787.041 562.536C787.659 563.667 787.969 565.043 787.969 566.664V577H785.089V567.08C785.089 565.331 784.651 563.997 783.777 563.08C782.923 562.141 781.761 561.672 780.289 561.672C778.774 561.672 777.569 562.163 776.673 563.144C775.777 564.104 775.329 565.501 775.329 567.336V577H772.449V567.08C772.449 565.331 772.011 563.997 771.137 563.08C770.283 562.141 769.121 561.672 767.649 561.672C766.134 561.672 764.929 562.163 764.033 563.144C763.137 564.104 762.689 565.501 762.689 567.336V577H759.777V559.464H762.689V561.992C763.265 561.075 764.033 560.371 764.993 559.88C765.974 559.389 767.051 559.144 768.225 559.144C769.697 559.144 770.998 559.475 772.129 560.136C773.259 560.797 774.102 561.768 774.657 563.048C775.147 561.811 775.958 560.851 777.089 560.168C778.219 559.485 779.478 559.144 780.865 559.144ZM808.745 567.56C808.745 568.115 808.713 568.701 808.649 569.32H794.633C794.74 571.048 795.327 572.403 796.393 573.384C797.481 574.344 798.793 574.824 800.329 574.824C801.588 574.824 802.633 574.536 803.465 573.96C804.319 573.363 804.916 572.573 805.257 571.592H808.393C807.924 573.277 806.985 574.653 805.577 575.72C804.169 576.765 802.42 577.288 800.329 577.288C798.665 577.288 797.172 576.915 795.849 576.168C794.548 575.421 793.524 574.365 792.777 573C792.031 571.613 791.657 570.013 791.657 568.2C791.657 566.387 792.02 564.797 792.745 563.432C793.471 562.067 794.484 561.021 795.785 560.296C797.108 559.549 798.623 559.176 800.329 559.176C801.993 559.176 803.465 559.539 804.745 560.264C806.025 560.989 807.007 561.992 807.689 563.272C808.393 564.531 808.745 565.96 808.745 567.56ZM805.737 566.952C805.737 565.843 805.492 564.893 805.001 564.104C804.511 563.293 803.839 562.685 802.985 562.28C802.153 561.853 801.225 561.64 800.201 561.64C798.729 561.64 797.471 562.109 796.425 563.048C795.401 563.987 794.815 565.288 794.665 566.952H805.737ZM815.597 572.968L812.013 581.576H810.061L812.397 572.968H815.597ZM826.376 568.168C826.376 566.376 826.739 564.808 827.464 563.464C828.189 562.099 829.181 561.043 830.44 560.296C831.72 559.549 833.139 559.176 834.696 559.176C836.232 559.176 837.565 559.507 838.696 560.168C839.827 560.829 840.669 561.661 841.224 562.664V559.464H844.168V577H841.224V573.736C840.648 574.76 839.784 575.613 838.632 576.296C837.501 576.957 836.179 577.288 834.664 577.288C833.107 577.288 831.699 576.904 830.44 576.136C829.181 575.368 828.189 574.291 827.464 572.904C826.739 571.517 826.376 569.939 826.376 568.168ZM841.224 568.2C841.224 566.877 840.957 565.725 840.424 564.744C839.891 563.763 839.165 563.016 838.248 562.504C837.352 561.971 836.36 561.704 835.272 561.704C834.184 561.704 833.192 561.96 832.296 562.472C831.4 562.984 830.685 563.731 830.152 564.712C829.619 565.693 829.352 566.845 829.352 568.168C829.352 569.512 829.619 570.685 830.152 571.688C830.685 572.669 831.4 573.427 832.296 573.96C833.192 574.472 834.184 574.728 835.272 574.728C836.36 574.728 837.352 574.472 838.248 573.96C839.165 573.427 839.891 572.669 840.424 571.688C840.957 570.685 841.224 569.523 841.224 568.2ZM857.633 559.144C859.766 559.144 861.494 559.795 862.817 561.096C864.14 562.376 864.801 564.232 864.801 566.664V577H861.921V567.08C861.921 565.331 861.484 563.997 860.609 563.08C859.734 562.141 858.54 561.672 857.025 561.672C855.489 561.672 854.262 562.152 853.345 563.112C852.449 564.072 852.001 565.469 852.001 567.304V577H849.089V559.464H852.001V561.96C852.577 561.064 853.356 560.371 854.337 559.88C855.34 559.389 856.438 559.144 857.633 559.144ZM884.662 559.464L874.102 585.256H871.094L874.55 576.808L867.478 559.464H870.71L876.214 573.672L881.654 559.464H884.662ZM910.949 559.464L905.477 577H902.469L898.245 563.08L894.021 577H891.013L885.509 559.464H888.485L892.517 574.184L896.869 559.464H899.845L904.101 574.216L908.069 559.464H910.949ZM922.543 559.144C923.866 559.144 925.06 559.432 926.127 560.008C927.194 560.563 928.026 561.405 928.623 562.536C929.242 563.667 929.551 565.043 929.551 566.664V577H926.671V567.08C926.671 565.331 926.234 563.997 925.359 563.08C924.484 562.141 923.29 561.672 921.775 561.672C920.239 561.672 919.012 562.152 918.095 563.112C917.199 564.072 916.751 565.469 916.751 567.304V577H913.839V553.32H916.751V561.96C917.327 561.064 918.116 560.371 919.119 559.88C920.143 559.389 921.284 559.144 922.543 559.144ZM950.308 567.56C950.308 568.115 950.276 568.701 950.212 569.32H936.196C936.302 571.048 936.889 572.403 937.956 573.384C939.044 574.344 940.356 574.824 941.892 574.824C943.15 574.824 944.196 574.536 945.028 573.96C945.881 573.363 946.478 572.573 946.82 571.592H949.956C949.486 573.277 948.548 574.653 947.14 575.72C945.732 576.765 943.982 577.288 941.892 577.288C940.228 577.288 938.734 576.915 937.412 576.168C936.11 575.421 935.086 574.365 934.34 573C933.593 571.613 933.22 570.013 933.22 568.2C933.22 566.387 933.582 564.797 934.308 563.432C935.033 562.067 936.046 561.021 937.348 560.296C938.67 559.549 940.185 559.176 941.892 559.176C943.556 559.176 945.028 559.539 946.308 560.264C947.588 560.989 948.569 561.992 949.252 563.272C949.956 564.531 950.308 565.96 950.308 567.56ZM947.3 566.952C947.3 565.843 947.054 564.893 946.564 564.104C946.073 563.293 945.401 562.685 944.548 562.28C943.716 561.853 942.788 561.64 941.764 561.64C940.292 561.64 939.033 562.109 937.988 563.048C936.964 563.987 936.377 565.288 936.228 566.952H947.3ZM957.064 562.312C957.576 561.309 958.301 560.531 959.24 559.976C960.2 559.421 961.362 559.144 962.728 559.144V562.152H961.96C958.696 562.152 957.064 563.923 957.064 567.464V577H954.152V559.464H957.064V562.312ZM982.089 567.56C982.089 568.115 982.057 568.701 981.993 569.32H967.977C968.084 571.048 968.67 572.403 969.737 573.384C970.825 574.344 972.137 574.824 973.673 574.824C974.932 574.824 975.977 574.536 976.809 573.96C977.662 573.363 978.26 572.573 978.601 571.592H981.737C981.268 573.277 980.329 574.653 978.921 575.72C977.513 576.765 975.764 577.288 973.673 577.288C972.009 577.288 970.516 576.915 969.193 576.168C967.892 575.421 966.868 574.365 966.121 573C965.374 571.613 965.001 570.013 965.001 568.2C965.001 566.387 965.364 564.797 966.089 563.432C966.814 562.067 967.828 561.021 969.129 560.296C970.452 559.549 971.966 559.176 973.673 559.176C975.337 559.176 976.809 559.539 978.089 560.264C979.369 560.989 980.35 561.992 981.033 563.272C981.737 564.531 982.089 565.96 982.089 567.56ZM979.081 566.952C979.081 565.843 978.836 564.893 978.345 564.104C977.854 563.293 977.182 562.685 976.329 562.28C975.497 561.853 974.569 561.64 973.545 561.64C972.073 561.64 970.814 562.109 969.769 563.048C968.745 563.987 968.158 565.288 968.009 566.952H979.081ZM988.941 572.968L985.357 581.576H983.405L985.741 572.968H988.941ZM1012.25 562.312C1012.76 561.309 1013.49 560.531 1014.43 559.976C1015.39 559.421 1016.55 559.144 1017.92 559.144V562.152H1017.15C1013.88 562.152 1012.25 563.923 1012.25 567.464V577H1009.34V559.464H1012.25V562.312ZM1022.78 556.616C1022.23 556.616 1021.76 556.424 1021.37 556.04C1020.99 555.656 1020.8 555.187 1020.8 554.632C1020.8 554.077 1020.99 553.608 1021.37 553.224C1021.76 552.84 1022.23 552.648 1022.78 552.648C1023.31 552.648 1023.76 552.84 1024.12 553.224C1024.51 553.608 1024.7 554.077 1024.7 554.632C1024.7 555.187 1024.51 555.656 1024.12 556.04C1023.76 556.424 1023.31 556.616 1022.78 556.616ZM1024.19 559.464V577H1021.28V559.464H1024.19ZM1036.38 559.176C1037.9 559.176 1039.22 559.507 1040.35 560.168C1041.5 560.829 1042.36 561.661 1042.91 562.664V559.464H1045.86V577.384C1045.86 578.984 1045.51 580.403 1044.83 581.64C1044.15 582.899 1043.17 583.88 1041.89 584.584C1040.63 585.288 1039.16 585.64 1037.47 585.64C1035.17 585.64 1033.25 585.096 1031.71 584.008C1030.18 582.92 1029.27 581.437 1028.99 579.56H1031.87C1032.19 580.627 1032.85 581.48 1033.86 582.12C1034.86 582.781 1036.06 583.112 1037.47 583.112C1039.07 583.112 1040.37 582.611 1041.38 581.608C1042.4 580.605 1042.91 579.197 1042.91 577.384V573.704C1042.34 574.728 1041.48 575.581 1040.35 576.264C1039.22 576.947 1037.9 577.288 1036.38 577.288C1034.83 577.288 1033.41 576.904 1032.13 576.136C1030.87 575.368 1029.88 574.291 1029.15 572.904C1028.43 571.517 1028.06 569.939 1028.06 568.168C1028.06 566.376 1028.43 564.808 1029.15 563.464C1029.88 562.099 1030.87 561.043 1032.13 560.296C1033.41 559.549 1034.83 559.176 1036.38 559.176ZM1042.91 568.2C1042.91 566.877 1042.64 565.725 1042.11 564.744C1041.58 563.763 1040.85 563.016 1039.94 562.504C1039.04 561.971 1038.05 561.704 1036.96 561.704C1035.87 561.704 1034.88 561.96 1033.98 562.472C1033.09 562.984 1032.37 563.731 1031.84 564.712C1031.31 565.693 1031.04 566.845 1031.04 568.168C1031.04 569.512 1031.31 570.685 1031.84 571.688C1032.37 572.669 1033.09 573.427 1033.98 573.96C1034.88 574.472 1035.87 574.728 1036.96 574.728C1038.05 574.728 1039.04 574.472 1039.94 573.96C1040.85 573.427 1041.58 572.669 1042.11 571.688C1042.64 570.685 1042.91 569.523 1042.91 568.2ZM1059.48 559.144C1060.8 559.144 1062 559.432 1063.06 560.008C1064.13 560.563 1064.96 561.405 1065.56 562.536C1066.18 563.667 1066.49 565.043 1066.49 566.664V577H1063.61V567.08C1063.61 565.331 1063.17 563.997 1062.3 563.08C1061.42 562.141 1060.23 561.672 1058.71 561.672C1057.18 561.672 1055.95 562.152 1055.03 563.112C1054.14 564.072 1053.69 565.469 1053.69 567.304V577H1050.78V553.32H1053.69V561.96C1054.26 561.064 1055.05 560.371 1056.06 559.88C1057.08 559.389 1058.22 559.144 1059.48 559.144ZM1074.8 561.864V572.2C1074.8 573.053 1074.98 573.661 1075.34 574.024C1075.7 574.365 1076.33 574.536 1077.23 574.536H1079.37V577H1076.75C1075.13 577 1073.91 576.627 1073.1 575.88C1072.29 575.133 1071.89 573.907 1071.89 572.2V561.864H1069.61V559.464H1071.89V555.048H1074.8V559.464H1079.37V561.864H1074.8ZM1098.57 561.864H1094.89V577H1091.98V561.864H1089.7V559.464H1091.98V558.216C1091.98 556.253 1092.48 554.824 1093.48 553.928C1094.5 553.011 1096.14 552.552 1098.38 552.552V554.984C1097.1 554.984 1096.19 555.24 1095.66 555.752C1095.14 556.243 1094.89 557.064 1094.89 558.216V559.464H1098.57V561.864ZM1104.88 562.312C1105.39 561.309 1106.11 560.531 1107.05 559.976C1108.01 559.421 1109.17 559.144 1110.54 559.144V562.152H1109.77C1106.51 562.152 1104.88 563.923 1104.88 567.464V577H1101.96V559.464H1104.88V562.312ZM1121.55 577.288C1119.91 577.288 1118.41 576.915 1117.07 576.168C1115.75 575.421 1114.7 574.365 1113.93 573C1113.19 571.613 1112.81 570.013 1112.81 568.2C1112.81 566.408 1113.2 564.829 1113.97 563.464C1114.75 562.077 1115.82 561.021 1117.17 560.296C1118.51 559.549 1120.01 559.176 1121.68 559.176C1123.34 559.176 1124.85 559.549 1126.19 560.296C1127.53 561.021 1128.59 562.067 1129.36 563.432C1130.15 564.797 1130.54 566.387 1130.54 568.2C1130.54 570.013 1130.14 571.613 1129.33 573C1128.54 574.365 1127.46 575.421 1126.09 576.168C1124.73 576.915 1123.21 577.288 1121.55 577.288ZM1121.55 574.728C1122.59 574.728 1123.58 574.483 1124.49 573.992C1125.41 573.501 1126.15 572.765 1126.7 571.784C1127.28 570.803 1127.57 569.608 1127.57 568.2C1127.57 566.792 1127.29 565.597 1126.73 564.616C1126.18 563.635 1125.45 562.909 1124.56 562.44C1123.66 561.949 1122.69 561.704 1121.65 561.704C1120.58 561.704 1119.6 561.949 1118.7 562.44C1117.83 562.909 1117.12 563.635 1116.59 564.616C1116.06 565.597 1115.79 566.792 1115.79 568.2C1115.79 569.629 1116.05 570.835 1116.56 571.816C1117.09 572.797 1117.79 573.533 1118.67 574.024C1119.54 574.493 1120.5 574.728 1121.55 574.728ZM1155.46 559.144C1156.82 559.144 1158.04 559.432 1159.11 560.008C1160.17 560.563 1161.02 561.405 1161.63 562.536C1162.25 563.667 1162.56 565.043 1162.56 566.664V577H1159.68V567.08C1159.68 565.331 1159.24 563.997 1158.37 563.08C1157.52 562.141 1156.35 561.672 1154.88 561.672C1153.37 561.672 1152.16 562.163 1151.27 563.144C1150.37 564.104 1149.92 565.501 1149.92 567.336V577H1147.04V567.08C1147.04 565.331 1146.6 563.997 1145.73 563.08C1144.88 562.141 1143.71 561.672 1142.24 561.672C1140.73 561.672 1139.52 562.163 1138.63 563.144C1137.73 564.104 1137.28 565.501 1137.28 567.336V577H1134.37V559.464H1137.28V561.992C1137.86 561.075 1138.63 560.371 1139.59 559.88C1140.57 559.389 1141.64 559.144 1142.82 559.144C1144.29 559.144 1145.59 559.475 1146.72 560.136C1147.85 560.797 1148.7 561.768 1149.25 563.048C1149.74 561.811 1150.55 560.851 1151.68 560.168C1152.81 559.485 1154.07 559.144 1155.46 559.144ZM1179.42 561.864V572.2C1179.42 573.053 1179.6 573.661 1179.97 574.024C1180.33 574.365 1180.96 574.536 1181.85 574.536H1184V577H1181.37C1179.75 577 1178.54 576.627 1177.73 575.88C1176.92 575.133 1176.51 573.907 1176.51 572.2V561.864H1174.24V559.464H1176.51V555.048H1179.42V559.464H1184V561.864H1179.42ZM1196.23 559.144C1197.55 559.144 1198.75 559.432 1199.81 560.008C1200.88 560.563 1201.71 561.405 1202.31 562.536C1202.93 563.667 1203.24 565.043 1203.24 566.664V577H1200.36V567.08C1200.36 565.331 1199.92 563.997 1199.05 563.08C1198.17 562.141 1196.98 561.672 1195.46 561.672C1193.93 561.672 1192.7 562.152 1191.78 563.112C1190.89 564.072 1190.44 565.469 1190.44 567.304V577H1187.53V553.32H1190.44V561.96C1191.01 561.064 1191.8 560.371 1192.81 559.88C1193.83 559.389 1194.97 559.144 1196.23 559.144ZM1224 567.56C1224 568.115 1223.96 568.701 1223.9 569.32H1209.88C1209.99 571.048 1210.58 572.403 1211.64 573.384C1212.73 574.344 1214.04 574.824 1215.58 574.824C1216.84 574.824 1217.88 574.536 1218.72 573.96C1219.57 573.363 1220.17 572.573 1220.51 571.592H1223.64C1223.17 573.277 1222.24 574.653 1220.83 575.72C1219.42 576.765 1217.67 577.288 1215.58 577.288C1213.92 577.288 1212.42 576.915 1211.1 576.168C1209.8 575.421 1208.77 574.365 1208.03 573C1207.28 571.613 1206.91 570.013 1206.91 568.2C1206.91 566.387 1207.27 564.797 1208 563.432C1208.72 562.067 1209.73 561.021 1211.04 560.296C1212.36 559.549 1213.87 559.176 1215.58 559.176C1217.24 559.176 1218.72 559.539 1220 560.264C1221.28 560.989 1222.26 561.992 1222.94 563.272C1223.64 564.531 1224 565.96 1224 567.56ZM1220.99 566.952C1220.99 565.843 1220.74 564.893 1220.25 564.104C1219.76 563.293 1219.09 562.685 1218.24 562.28C1217.4 561.853 1216.48 561.64 1215.45 561.64C1213.98 561.64 1212.72 562.109 1211.68 563.048C1210.65 563.987 1210.06 565.288 1209.92 566.952H1220.99ZM1235.28 568.2C1235.28 566.387 1235.64 564.808 1236.37 563.464C1237.1 562.099 1238.1 561.043 1239.38 560.296C1240.68 559.549 1242.16 559.176 1243.83 559.176C1245.98 559.176 1247.75 559.699 1249.14 560.744C1250.55 561.789 1251.47 563.24 1251.92 565.096H1248.79C1248.49 564.029 1247.9 563.187 1247.03 562.568C1246.17 561.949 1245.11 561.64 1243.83 561.64C1242.16 561.64 1240.82 562.216 1239.79 563.368C1238.77 564.499 1238.26 566.109 1238.26 568.2C1238.26 570.312 1238.77 571.944 1239.79 573.096C1240.82 574.248 1242.16 574.824 1243.83 574.824C1245.11 574.824 1246.17 574.525 1247.03 573.928C1247.88 573.331 1248.47 572.477 1248.79 571.368H1251.92C1251.45 573.16 1250.51 574.6 1249.11 575.688C1247.7 576.755 1245.94 577.288 1243.83 577.288C1242.16 577.288 1240.68 576.915 1239.38 576.168C1238.1 575.421 1237.1 574.365 1236.37 573C1235.64 571.635 1235.28 570.035 1235.28 568.2ZM1263.46 577.288C1261.81 577.288 1260.32 576.915 1258.98 576.168C1257.65 575.421 1256.61 574.365 1255.84 573C1255.09 571.613 1254.72 570.013 1254.72 568.2C1254.72 566.408 1255.1 564.829 1255.87 563.464C1256.66 562.077 1257.73 561.021 1259.07 560.296C1260.42 559.549 1261.92 559.176 1263.58 559.176C1265.25 559.176 1266.75 559.549 1268.1 560.296C1269.44 561.021 1270.5 562.067 1271.26 563.432C1272.05 564.797 1272.45 566.387 1272.45 568.2C1272.45 570.013 1272.04 571.613 1271.23 573C1270.44 574.365 1269.37 575.421 1268 576.168C1266.63 576.915 1265.12 577.288 1263.46 577.288ZM1263.46 574.728C1264.5 574.728 1265.48 574.483 1266.4 573.992C1267.32 573.501 1268.05 572.765 1268.61 571.784C1269.18 570.803 1269.47 569.608 1269.47 568.2C1269.47 566.792 1269.19 565.597 1268.64 564.616C1268.09 563.635 1267.36 562.909 1266.46 562.44C1265.57 561.949 1264.6 561.704 1263.55 561.704C1262.49 561.704 1261.5 561.949 1260.61 562.44C1259.73 562.909 1259.03 563.635 1258.5 564.616C1257.96 565.597 1257.7 566.792 1257.7 568.2C1257.7 569.629 1257.95 570.835 1258.46 571.816C1259 572.797 1259.7 573.533 1260.58 574.024C1261.45 574.493 1262.41 574.728 1263.46 574.728ZM1297.36 559.144C1298.73 559.144 1299.95 559.432 1301.01 560.008C1302.08 560.563 1302.92 561.405 1303.54 562.536C1304.16 563.667 1304.47 565.043 1304.47 566.664V577H1301.59V567.08C1301.59 565.331 1301.15 563.997 1300.28 563.08C1299.42 562.141 1298.26 561.672 1296.79 561.672C1295.27 561.672 1294.07 562.163 1293.17 563.144C1292.28 564.104 1291.83 565.501 1291.83 567.336V577H1288.95V567.08C1288.95 565.331 1288.51 563.997 1287.64 563.08C1286.78 562.141 1285.62 561.672 1284.15 561.672C1282.63 561.672 1281.43 562.163 1280.53 563.144C1279.64 564.104 1279.19 565.501 1279.19 567.336V577H1276.28V559.464H1279.19V561.992C1279.76 561.075 1280.53 560.371 1281.49 559.88C1282.47 559.389 1283.55 559.144 1284.72 559.144C1286.2 559.144 1287.5 559.475 1288.63 560.136C1289.76 560.797 1290.6 561.768 1291.16 563.048C1291.65 561.811 1292.46 560.851 1293.59 560.168C1294.72 559.485 1295.98 559.144 1297.36 559.144ZM1316.38 561.864H1312.7V577H1309.79V561.864H1307.52V559.464H1309.79V558.216C1309.79 556.253 1310.29 554.824 1311.29 553.928C1312.32 553.011 1313.95 552.552 1316.19 552.552V554.984C1314.91 554.984 1314 555.24 1313.47 555.752C1312.96 556.243 1312.7 557.064 1312.7 558.216V559.464H1316.38V561.864ZM1327.42 577.288C1325.78 577.288 1324.29 576.915 1322.94 576.168C1321.62 575.421 1320.58 574.365 1319.81 573C1319.06 571.613 1318.69 570.013 1318.69 568.2C1318.69 566.408 1319.07 564.829 1319.84 563.464C1320.63 562.077 1321.7 561.021 1323.04 560.296C1324.38 559.549 1325.89 559.176 1327.55 559.176C1329.22 559.176 1330.72 559.549 1332.06 560.296C1333.41 561.021 1334.46 562.067 1335.23 563.432C1336.02 564.797 1336.42 566.387 1336.42 568.2C1336.42 570.013 1336.01 571.613 1335.2 573C1334.41 574.365 1333.33 575.421 1331.97 576.168C1330.6 576.915 1329.09 577.288 1327.42 577.288ZM1327.42 574.728C1328.47 574.728 1329.45 574.483 1330.37 573.992C1331.29 573.501 1332.02 572.765 1332.58 571.784C1333.15 570.803 1333.44 569.608 1333.44 568.2C1333.44 566.792 1333.16 565.597 1332.61 564.616C1332.05 563.635 1331.33 562.909 1330.43 562.44C1329.54 561.949 1328.57 561.704 1327.52 561.704C1326.45 561.704 1325.47 561.949 1324.58 562.44C1323.7 562.909 1323 563.635 1322.46 564.616C1321.93 565.597 1321.66 566.792 1321.66 568.2C1321.66 569.629 1321.92 570.835 1322.43 571.816C1322.97 572.797 1323.67 573.533 1324.54 574.024C1325.42 574.493 1326.38 574.728 1327.42 574.728ZM1343.16 562.312C1343.67 561.309 1344.39 560.531 1345.33 559.976C1346.29 559.421 1347.46 559.144 1348.82 559.144V562.152H1348.05C1344.79 562.152 1343.16 563.923 1343.16 567.464V577H1340.25V559.464H1343.16V562.312ZM1355.73 561.864V572.2C1355.73 573.053 1355.92 573.661 1356.28 574.024C1356.64 574.365 1357.27 574.536 1358.17 574.536H1360.31V577H1357.69C1356.07 577 1354.85 576.627 1354.04 575.88C1353.23 575.133 1352.82 573.907 1352.82 572.2V561.864H1350.55V559.464H1352.82V555.048H1355.73V559.464H1360.31V561.864H1355.73ZM1380.02 577.288C1378.38 577.288 1376.88 576.915 1375.54 576.168C1374.22 575.421 1373.17 574.365 1372.4 573C1371.66 571.613 1371.28 570.013 1371.28 568.2C1371.28 566.408 1371.67 564.829 1372.43 563.464C1373.22 562.077 1374.29 561.021 1375.63 560.296C1376.98 559.549 1378.48 559.176 1380.15 559.176C1381.81 559.176 1383.31 559.549 1384.66 560.296C1386 561.021 1387.06 562.067 1387.83 563.432C1388.62 564.797 1389.01 566.387 1389.01 568.2C1389.01 570.013 1388.6 571.613 1387.79 573C1387 574.365 1385.93 575.421 1384.56 576.168C1383.2 576.915 1381.68 577.288 1380.02 577.288ZM1380.02 574.728C1381.06 574.728 1382.04 574.483 1382.96 573.992C1383.88 573.501 1384.62 572.765 1385.17 571.784C1385.75 570.803 1386.03 569.608 1386.03 568.2C1386.03 566.792 1385.76 565.597 1385.2 564.616C1384.65 563.635 1383.92 562.909 1383.03 562.44C1382.13 561.949 1381.16 561.704 1380.11 561.704C1379.05 561.704 1378.07 561.949 1377.17 562.44C1376.3 562.909 1375.59 563.635 1375.06 564.616C1374.52 565.597 1374.26 566.792 1374.26 568.2C1374.26 569.629 1374.51 570.835 1375.03 571.816C1375.56 572.797 1376.26 573.533 1377.14 574.024C1378.01 574.493 1378.97 574.728 1380.02 574.728ZM1399.98 561.864H1396.3V577H1393.38V561.864H1391.11V559.464H1393.38V558.216C1393.38 556.253 1393.88 554.824 1394.89 553.928C1395.91 553.011 1397.54 552.552 1399.78 552.552V554.984C1398.5 554.984 1397.6 555.24 1397.06 555.752C1396.55 556.243 1396.3 557.064 1396.3 558.216V559.464H1399.98V561.864ZM1427.01 559.464L1416.45 585.256H1413.44L1416.89 576.808L1409.82 559.464H1413.05L1418.56 573.672L1424 559.464H1427.01ZM1437.58 577.288C1435.94 577.288 1434.44 576.915 1433.1 576.168C1431.78 575.421 1430.73 574.365 1429.96 573C1429.22 571.613 1428.84 570.013 1428.84 568.2C1428.84 566.408 1429.23 564.829 1430 563.464C1430.79 562.077 1431.85 561.021 1433.2 560.296C1434.54 559.549 1436.04 559.176 1437.71 559.176C1439.37 559.176 1440.88 559.549 1442.22 560.296C1443.56 561.021 1444.62 562.067 1445.39 563.432C1446.18 564.797 1446.57 566.387 1446.57 568.2C1446.57 570.013 1446.17 571.613 1445.36 573C1444.57 574.365 1443.49 575.421 1442.12 576.168C1440.76 576.915 1439.24 577.288 1437.58 577.288ZM1437.58 574.728C1438.63 574.728 1439.61 574.483 1440.52 573.992C1441.44 573.501 1442.18 572.765 1442.73 571.784C1443.31 570.803 1443.6 569.608 1443.6 568.2C1443.6 566.792 1443.32 565.597 1442.76 564.616C1442.21 563.635 1441.48 562.909 1440.59 562.44C1439.69 561.949 1438.72 561.704 1437.68 561.704C1436.61 561.704 1435.63 561.949 1434.73 562.44C1433.86 562.909 1433.15 563.635 1432.62 564.616C1432.09 565.597 1431.82 566.792 1431.82 568.2C1431.82 569.629 1432.08 570.835 1432.59 571.816C1433.12 572.797 1433.83 573.533 1434.7 574.024C1435.58 574.493 1436.54 574.728 1437.58 574.728ZM1465.95 559.464V577H1463.04V574.408C1462.49 575.304 1461.71 576.008 1460.71 576.52C1459.72 577.011 1458.64 577.256 1457.44 577.256C1456.08 577.256 1454.85 576.979 1453.76 576.424C1452.67 575.848 1451.81 574.995 1451.17 573.864C1450.55 572.733 1450.24 571.357 1450.24 569.736V559.464H1453.12V569.352C1453.12 571.08 1453.56 572.413 1454.43 573.352C1455.31 574.269 1456.5 574.728 1458.02 574.728C1459.57 574.728 1460.8 574.248 1461.7 573.288C1462.59 572.328 1463.04 570.931 1463.04 569.096V559.464H1465.95ZM1473.78 562.312C1474.29 561.309 1475.02 560.531 1475.96 559.976C1476.92 559.421 1478.08 559.144 1479.45 559.144V562.152H1478.68C1475.41 562.152 1473.78 563.923 1473.78 567.464V577H1470.87V559.464H1473.78V562.312ZM643.375 625.288C642.031 625.288 640.826 625.064 639.759 624.616C638.692 624.147 637.85 623.507 637.231 622.696C636.612 621.864 636.271 620.915 636.207 619.848H639.215C639.3 620.723 639.706 621.437 640.431 621.992C641.178 622.547 642.148 622.824 643.343 622.824C644.452 622.824 645.327 622.579 645.967 622.088C646.607 621.597 646.927 620.979 646.927 620.232C646.927 619.464 646.586 618.899 645.903 618.536C645.22 618.152 644.164 617.779 642.735 617.416C641.434 617.075 640.367 616.733 639.535 616.392C638.724 616.029 638.02 615.507 637.423 614.824C636.847 614.12 636.559 613.203 636.559 612.072C636.559 611.176 636.826 610.355 637.359 609.608C637.892 608.861 638.65 608.275 639.631 607.848C640.612 607.4 641.732 607.176 642.991 607.176C644.932 607.176 646.5 607.667 647.695 608.648C648.89 609.629 649.53 610.973 649.615 612.68H646.703C646.639 611.763 646.266 611.027 645.583 610.472C644.922 609.917 644.026 609.64 642.895 609.64C641.85 609.64 641.018 609.864 640.399 610.312C639.78 610.76 639.471 611.347 639.471 612.072C639.471 612.648 639.652 613.128 640.015 613.512C640.399 613.875 640.868 614.173 641.423 614.408C641.999 614.621 642.788 614.867 643.791 615.144C645.05 615.485 646.074 615.827 646.863 616.168C647.652 616.488 648.324 616.979 648.879 617.64C649.455 618.301 649.754 619.165 649.775 620.232C649.775 621.192 649.508 622.056 648.975 622.824C648.442 623.592 647.684 624.2 646.703 624.648C645.743 625.075 644.634 625.288 643.375 625.288ZM674.974 607.144C676.339 607.144 677.555 607.432 678.622 608.008C679.689 608.563 680.531 609.405 681.15 610.536C681.769 611.667 682.078 613.043 682.078 614.664V625H679.198V615.08C679.198 613.331 678.761 611.997 677.886 611.08C677.033 610.141 675.87 609.672 674.398 609.672C672.883 609.672 671.678 610.163 670.782 611.144C669.886 612.104 669.438 613.501 669.438 615.336V625H666.558V615.08C666.558 613.331 666.121 611.997 665.246 611.08C664.393 610.141 663.23 609.672 661.758 609.672C660.243 609.672 659.038 610.163 658.142 611.144C657.246 612.104 656.798 613.501 656.798 615.336V625H653.886V607.464H656.798V609.992C657.374 609.075 658.142 608.371 659.102 607.88C660.083 607.389 661.161 607.144 662.334 607.144C663.806 607.144 665.107 607.475 666.238 608.136C667.369 608.797 668.211 609.768 668.766 611.048C669.257 609.811 670.067 608.851 671.198 608.168C672.329 607.485 673.587 607.144 674.974 607.144ZM685.767 616.168C685.767 614.376 686.129 612.808 686.855 611.464C687.58 610.099 688.572 609.043 689.831 608.296C691.111 607.549 692.529 607.176 694.087 607.176C695.623 607.176 696.956 607.507 698.087 608.168C699.217 608.829 700.06 609.661 700.615 610.664V607.464H703.559V625H700.615V621.736C700.039 622.76 699.175 623.613 698.023 624.296C696.892 624.957 695.569 625.288 694.055 625.288C692.497 625.288 691.089 624.904 689.831 624.136C688.572 623.368 687.58 622.291 686.855 620.904C686.129 619.517 685.767 617.939 685.767 616.168ZM700.615 616.2C700.615 614.877 700.348 613.725 699.815 612.744C699.281 611.763 698.556 611.016 697.639 610.504C696.743 609.971 695.751 609.704 694.663 609.704C693.575 609.704 692.583 609.96 691.687 610.472C690.791 610.984 690.076 611.731 689.543 612.712C689.009 613.693 688.743 614.845 688.743 616.168C688.743 617.512 689.009 618.685 689.543 619.688C690.076 620.669 690.791 621.427 691.687 621.96C692.583 622.472 693.575 622.728 694.663 622.728C695.751 622.728 696.743 622.472 697.639 621.96C698.556 621.427 699.281 620.669 699.815 619.688C700.348 618.685 700.615 617.523 700.615 616.2ZM711.392 610.312C711.904 609.309 712.629 608.531 713.568 607.976C714.528 607.421 715.69 607.144 717.056 607.144V610.152H716.288C713.024 610.152 711.392 611.923 711.392 615.464V625H708.48V607.464H711.392V610.312ZM723.969 609.864V620.2C723.969 621.053 724.15 621.661 724.513 622.024C724.876 622.365 725.505 622.536 726.401 622.536H728.545V625H725.921C724.3 625 723.084 624.627 722.273 623.88C721.462 623.133 721.057 621.907 721.057 620.2V609.864H718.785V607.464H721.057V603.048H723.969V607.464H728.545V609.864H723.969ZM734.985 610.696C735.561 609.693 736.415 608.861 737.545 608.2C738.697 607.517 740.031 607.176 741.545 607.176C743.103 607.176 744.511 607.549 745.769 608.296C747.049 609.043 748.052 610.099 748.777 611.464C749.503 612.808 749.865 614.376 749.865 616.168C749.865 617.939 749.503 619.517 748.777 620.904C748.052 622.291 747.049 623.368 745.769 624.136C744.511 624.904 743.103 625.288 741.545 625.288C740.052 625.288 738.729 624.957 737.577 624.296C736.447 623.613 735.583 622.771 734.985 621.768V633.32H732.073V607.464H734.985V610.696ZM746.889 616.168C746.889 614.845 746.623 613.693 746.089 612.712C745.556 611.731 744.831 610.984 743.913 610.472C743.017 609.96 742.025 609.704 740.937 609.704C739.871 609.704 738.879 609.971 737.961 610.504C737.065 611.016 736.34 611.773 735.785 612.776C735.252 613.757 734.985 614.899 734.985 616.2C734.985 617.523 735.252 618.685 735.785 619.688C736.34 620.669 737.065 621.427 737.961 621.96C738.879 622.472 739.871 622.728 740.937 622.728C742.025 622.728 743.017 622.472 743.913 621.96C744.831 621.427 745.556 620.669 746.089 619.688C746.623 618.685 746.889 617.512 746.889 616.168ZM762.402 607.144C763.725 607.144 764.92 607.432 765.986 608.008C767.053 608.563 767.885 609.405 768.482 610.536C769.101 611.667 769.41 613.043 769.41 614.664V625H766.53V615.08C766.53 613.331 766.093 611.997 765.218 611.08C764.344 610.141 763.149 609.672 761.634 609.672C760.098 609.672 758.872 610.152 757.954 611.112C757.058 612.072 756.61 613.469 756.61 615.304V625H753.698V601.32H756.61V609.96C757.186 609.064 757.976 608.371 758.978 607.88C760.002 607.389 761.144 607.144 762.402 607.144ZM781.815 625.288C780.172 625.288 778.679 624.915 777.335 624.168C776.012 623.421 774.967 622.365 774.199 621C773.452 619.613 773.079 618.013 773.079 616.2C773.079 614.408 773.463 612.829 774.231 611.464C775.02 610.077 776.087 609.021 777.431 608.296C778.775 607.549 780.279 607.176 781.943 607.176C783.607 607.176 785.111 607.549 786.455 608.296C787.799 609.021 788.855 610.067 789.623 611.432C790.412 612.797 790.807 614.387 790.807 616.2C790.807 618.013 790.402 619.613 789.591 621C788.802 622.365 787.724 623.421 786.359 624.168C784.994 624.915 783.479 625.288 781.815 625.288ZM781.815 622.728C782.86 622.728 783.842 622.483 784.759 621.992C785.676 621.501 786.412 620.765 786.967 619.784C787.543 618.803 787.831 617.608 787.831 616.2C787.831 614.792 787.554 613.597 786.999 612.616C786.444 611.635 785.719 610.909 784.823 610.44C783.927 609.949 782.956 609.704 781.911 609.704C780.844 609.704 779.863 609.949 778.967 610.44C778.092 610.909 777.388 611.635 776.855 612.616C776.322 613.597 776.055 614.792 776.055 616.2C776.055 617.629 776.311 618.835 776.823 619.816C777.356 620.797 778.06 621.533 778.935 622.024C779.81 622.493 780.77 622.728 781.815 622.728ZM803.18 607.144C805.313 607.144 807.041 607.795 808.364 609.096C809.687 610.376 810.348 612.232 810.348 614.664V625H807.468V615.08C807.468 613.331 807.031 611.997 806.156 611.08C805.281 610.141 804.087 609.672 802.572 609.672C801.036 609.672 799.809 610.152 798.892 611.112C797.996 612.072 797.548 613.469 797.548 615.304V625H794.636V607.464H797.548V609.96C798.124 609.064 798.903 608.371 799.884 607.88C800.887 607.389 801.985 607.144 803.18 607.144ZM831.105 615.56C831.105 616.115 831.073 616.701 831.009 617.32H816.993C817.099 619.048 817.686 620.403 818.753 621.384C819.841 622.344 821.153 622.824 822.689 622.824C823.947 622.824 824.993 622.536 825.825 621.96C826.678 621.363 827.275 620.573 827.617 619.592H830.753C830.283 621.277 829.345 622.653 827.937 623.72C826.529 624.765 824.779 625.288 822.689 625.288C821.025 625.288 819.531 624.915 818.209 624.168C816.907 623.421 815.883 622.365 815.137 621C814.39 619.613 814.017 618.013 814.017 616.2C814.017 614.387 814.379 612.797 815.105 611.432C815.83 610.067 816.843 609.021 818.145 608.296C819.467 607.549 820.982 607.176 822.689 607.176C824.353 607.176 825.825 607.539 827.105 608.264C828.385 608.989 829.366 609.992 830.049 611.272C830.753 612.531 831.105 613.96 831.105 615.56ZM828.097 614.952C828.097 613.843 827.851 612.893 827.361 612.104C826.87 611.293 826.198 610.685 825.345 610.28C824.513 609.853 823.585 609.64 822.561 609.64C821.089 609.64 819.83 610.109 818.785 611.048C817.761 611.987 817.174 613.288 817.025 614.952H828.097ZM837.956 620.968L834.372 629.576H832.42L834.756 620.968H837.956ZM853.375 609.864V620.2C853.375 621.053 853.557 621.661 853.919 622.024C854.282 622.365 854.911 622.536 855.807 622.536H857.951V625H855.327C853.706 625 852.49 624.627 851.679 623.88C850.869 623.133 850.463 621.907 850.463 620.2V609.864H848.191V607.464H850.463V603.048H853.375V607.464H857.951V609.864H853.375ZM870.184 607.144C871.506 607.144 872.701 607.432 873.768 608.008C874.834 608.563 875.666 609.405 876.264 610.536C876.882 611.667 877.192 613.043 877.192 614.664V625H874.312V615.08C874.312 613.331 873.874 611.997 873 611.08C872.125 610.141 870.93 609.672 869.416 609.672C867.88 609.672 866.653 610.152 865.736 611.112C864.84 612.072 864.392 613.469 864.392 615.304V625H861.48V601.32H864.392V609.96C864.968 609.064 865.757 608.371 866.76 607.88C867.784 607.389 868.925 607.144 870.184 607.144ZM884.86 610.312C885.372 609.309 886.098 608.531 887.036 607.976C887.996 607.421 889.159 607.144 890.524 607.144V610.152H889.756C886.492 610.152 884.86 611.923 884.86 615.464V625H881.948V607.464H884.86V610.312ZM901.534 625.288C899.891 625.288 898.398 624.915 897.054 624.168C895.731 623.421 894.686 622.365 893.918 621C893.171 619.613 892.798 618.013 892.798 616.2C892.798 614.408 893.182 612.829 893.95 611.464C894.739 610.077 895.806 609.021 897.15 608.296C898.494 607.549 899.998 607.176 901.662 607.176C903.326 607.176 904.83 607.549 906.174 608.296C907.518 609.021 908.574 610.067 909.342 611.432C910.131 612.797 910.526 614.387 910.526 616.2C910.526 618.013 910.121 619.613 909.31 621C908.521 622.365 907.443 623.421 906.078 624.168C904.713 624.915 903.198 625.288 901.534 625.288ZM901.534 622.728C902.579 622.728 903.561 622.483 904.478 621.992C905.395 621.501 906.131 620.765 906.686 619.784C907.262 618.803 907.55 617.608 907.55 616.2C907.55 614.792 907.273 613.597 906.718 612.616C906.163 611.635 905.438 610.909 904.542 610.44C903.646 609.949 902.675 609.704 901.63 609.704C900.563 609.704 899.582 609.949 898.686 610.44C897.811 610.909 897.107 611.635 896.574 612.616C896.041 613.597 895.774 614.792 895.774 616.2C895.774 617.629 896.03 618.835 896.542 619.816C897.075 620.797 897.779 621.533 898.654 622.024C899.529 622.493 900.489 622.728 901.534 622.728ZM929.907 607.464V625H926.995V622.408C926.44 623.304 925.661 624.008 924.659 624.52C923.677 625.011 922.589 625.256 921.395 625.256C920.029 625.256 918.803 624.979 917.715 624.424C916.627 623.848 915.763 622.995 915.123 621.864C914.504 620.733 914.195 619.357 914.195 617.736V607.464H917.075V617.352C917.075 619.08 917.512 620.413 918.387 621.352C919.261 622.269 920.456 622.728 921.971 622.728C923.528 622.728 924.755 622.248 925.651 621.288C926.547 620.328 926.995 618.931 926.995 617.096V607.464H929.907ZM942.055 607.176C943.57 607.176 944.893 607.507 946.023 608.168C947.175 608.829 948.029 609.661 948.583 610.664V607.464H951.527V625.384C951.527 626.984 951.186 628.403 950.503 629.64C949.821 630.899 948.839 631.88 947.559 632.584C946.301 633.288 944.829 633.64 943.143 633.64C940.839 633.64 938.919 633.096 937.383 632.008C935.847 630.92 934.941 629.437 934.663 627.56H937.543C937.863 628.627 938.525 629.48 939.527 630.12C940.53 630.781 941.735 631.112 943.143 631.112C944.743 631.112 946.045 630.611 947.047 629.608C948.071 628.605 948.583 627.197 948.583 625.384V621.704C948.007 622.728 947.154 623.581 946.023 624.264C944.893 624.947 943.57 625.288 942.055 625.288C940.498 625.288 939.079 624.904 937.799 624.136C936.541 623.368 935.549 622.291 934.823 620.904C934.098 619.517 933.735 617.939 933.735 616.168C933.735 614.376 934.098 612.808 934.823 611.464C935.549 610.099 936.541 609.043 937.799 608.296C939.079 607.549 940.498 607.176 942.055 607.176ZM948.583 616.2C948.583 614.877 948.317 613.725 947.783 612.744C947.25 611.763 946.525 611.016 945.607 610.504C944.711 609.971 943.719 609.704 942.631 609.704C941.543 609.704 940.551 609.96 939.655 610.472C938.759 610.984 938.045 611.731 937.511 612.712C936.978 613.693 936.711 614.845 936.711 616.168C936.711 617.512 936.978 618.685 937.511 619.688C938.045 620.669 938.759 621.427 939.655 621.96C940.551 622.472 941.543 622.728 942.631 622.728C943.719 622.728 944.711 622.472 945.607 621.96C946.525 621.427 947.25 620.669 947.783 619.688C948.317 618.685 948.583 617.523 948.583 616.2ZM965.152 607.144C966.475 607.144 967.67 607.432 968.736 608.008C969.803 608.563 970.635 609.405 971.232 610.536C971.851 611.667 972.16 613.043 972.16 614.664V625H969.28V615.08C969.28 613.331 968.843 611.997 967.968 611.08C967.094 610.141 965.899 609.672 964.384 609.672C962.848 609.672 961.622 610.152 960.704 611.112C959.808 612.072 959.36 613.469 959.36 615.304V625H956.448V601.32H959.36V609.96C959.936 609.064 960.726 608.371 961.728 607.88C962.752 607.389 963.894 607.144 965.152 607.144ZM1008.81 607.464L1003.34 625H1000.33L996.104 611.08L991.88 625H988.872L983.368 607.464H986.344L990.376 622.184L994.728 607.464H997.704L1001.96 622.216L1005.93 607.464H1008.81ZM1020.4 607.144C1021.73 607.144 1022.92 607.432 1023.99 608.008C1025.05 608.563 1025.89 609.405 1026.48 610.536C1027.1 611.667 1027.41 613.043 1027.41 614.664V625H1024.53V615.08C1024.53 613.331 1024.09 611.997 1023.22 611.08C1022.34 610.141 1021.15 609.672 1019.63 609.672C1018.1 609.672 1016.87 610.152 1015.95 611.112C1015.06 612.072 1014.61 613.469 1014.61 615.304V625H1011.7V601.32H1014.61V609.96C1015.19 609.064 1015.98 608.371 1016.98 607.88C1018 607.389 1019.14 607.144 1020.4 607.144ZM1031.08 616.168C1031.08 614.376 1031.44 612.808 1032.17 611.464C1032.89 610.099 1033.88 609.043 1035.14 608.296C1036.42 607.549 1037.84 607.176 1039.4 607.176C1040.94 607.176 1042.27 607.507 1043.4 608.168C1044.53 608.829 1045.37 609.661 1045.93 610.664V607.464H1048.87V625H1045.93V621.736C1045.35 622.76 1044.49 623.613 1043.34 624.296C1042.2 624.957 1040.88 625.288 1039.37 625.288C1037.81 625.288 1036.4 624.904 1035.14 624.136C1033.88 623.368 1032.89 622.291 1032.17 620.904C1031.44 619.517 1031.08 617.939 1031.08 616.168ZM1045.93 616.2C1045.93 614.877 1045.66 613.725 1045.13 612.744C1044.59 611.763 1043.87 611.016 1042.95 610.504C1042.06 609.971 1041.06 609.704 1039.98 609.704C1038.89 609.704 1037.9 609.96 1037 610.472C1036.1 610.984 1035.39 611.731 1034.86 612.712C1034.32 613.693 1034.06 614.845 1034.06 616.168C1034.06 617.512 1034.32 618.685 1034.86 619.688C1035.39 620.669 1036.1 621.427 1037 621.96C1037.9 622.472 1038.89 622.728 1039.98 622.728C1041.06 622.728 1042.06 622.472 1042.95 621.96C1043.87 621.427 1044.59 620.669 1045.13 619.688C1045.66 618.685 1045.93 617.523 1045.93 616.2ZM1057.34 609.864V620.2C1057.34 621.053 1057.53 621.661 1057.89 622.024C1058.25 622.365 1058.88 622.536 1059.78 622.536H1061.92V625H1059.3C1057.67 625 1056.46 624.627 1055.65 623.88C1054.84 623.133 1054.43 621.907 1054.43 620.2V609.864H1052.16V607.464H1054.43V603.048H1057.34V607.464H1061.92V609.864H1057.34ZM1071.66 625.288C1070.31 625.288 1069.11 625.064 1068.04 624.616C1066.97 624.147 1066.13 623.507 1065.51 622.696C1064.89 621.864 1064.55 620.915 1064.49 619.848H1067.5C1067.58 620.723 1067.99 621.437 1068.71 621.992C1069.46 622.547 1070.43 622.824 1071.62 622.824C1072.73 622.824 1073.61 622.579 1074.25 622.088C1074.89 621.597 1075.21 620.979 1075.21 620.232C1075.21 619.464 1074.87 618.899 1074.18 618.536C1073.5 618.152 1072.45 617.779 1071.02 617.416C1069.72 617.075 1068.65 616.733 1067.82 616.392C1067.01 616.029 1066.3 615.507 1065.7 614.824C1065.13 614.12 1064.84 613.203 1064.84 612.072C1064.84 611.176 1065.11 610.355 1065.64 609.608C1066.17 608.861 1066.93 608.275 1067.91 607.848C1068.89 607.4 1070.01 607.176 1071.27 607.176C1073.21 607.176 1074.78 607.667 1075.98 608.648C1077.17 609.629 1077.81 610.973 1077.9 612.68H1074.98C1074.92 611.763 1074.55 611.027 1073.86 610.472C1073.2 609.917 1072.31 609.64 1071.18 609.64C1070.13 609.64 1069.3 609.864 1068.68 610.312C1068.06 610.76 1067.75 611.347 1067.75 612.072C1067.75 612.648 1067.93 613.128 1068.3 613.512C1068.68 613.875 1069.15 614.173 1069.7 614.408C1070.28 614.621 1071.07 614.867 1072.07 615.144C1073.33 615.485 1074.36 615.827 1075.14 616.168C1075.93 616.488 1076.61 616.979 1077.16 617.64C1077.74 618.301 1078.04 619.165 1078.06 620.232C1078.06 621.192 1077.79 622.056 1077.26 622.824C1076.72 623.592 1075.97 624.2 1074.98 624.648C1074.02 625.075 1072.92 625.288 1071.66 625.288ZM1081.08 616.168C1081.08 614.376 1081.44 612.808 1082.17 611.464C1082.89 610.099 1083.88 609.043 1085.14 608.296C1086.42 607.549 1087.84 607.176 1089.4 607.176C1090.94 607.176 1092.27 607.507 1093.4 608.168C1094.53 608.829 1095.37 609.661 1095.93 610.664V607.464H1098.87V625H1095.93V621.736C1095.35 622.76 1094.49 623.613 1093.34 624.296C1092.2 624.957 1090.88 625.288 1089.37 625.288C1087.81 625.288 1086.4 624.904 1085.14 624.136C1083.88 623.368 1082.89 622.291 1082.17 620.904C1081.44 619.517 1081.08 617.939 1081.08 616.168ZM1095.93 616.2C1095.93 614.877 1095.66 613.725 1095.13 612.744C1094.59 611.763 1093.87 611.016 1092.95 610.504C1092.06 609.971 1091.06 609.704 1089.98 609.704C1088.89 609.704 1087.9 609.96 1087 610.472C1086.1 610.984 1085.39 611.731 1084.86 612.712C1084.32 613.693 1084.06 614.845 1084.06 616.168C1084.06 617.512 1084.32 618.685 1084.86 619.688C1085.39 620.669 1086.1 621.427 1087 621.96C1087.9 622.472 1088.89 622.728 1089.98 622.728C1091.06 622.728 1092.06 622.472 1092.95 621.96C1093.87 621.427 1094.59 620.669 1095.13 619.688C1095.66 618.685 1095.93 617.523 1095.93 616.2ZM1106.7 610.696C1107.28 609.693 1108.13 608.861 1109.26 608.2C1110.42 607.517 1111.75 607.176 1113.26 607.176C1114.82 607.176 1116.23 607.549 1117.49 608.296C1118.77 609.043 1119.77 610.099 1120.5 611.464C1121.22 612.808 1121.58 614.376 1121.58 616.168C1121.58 617.939 1121.22 619.517 1120.5 620.904C1119.77 622.291 1118.77 623.368 1117.49 624.136C1116.23 624.904 1114.82 625.288 1113.26 625.288C1111.77 625.288 1110.45 624.957 1109.3 624.296C1108.17 623.613 1107.3 622.771 1106.7 621.768V633.32H1103.79V607.464H1106.7V610.696ZM1118.61 616.168C1118.61 614.845 1118.34 613.693 1117.81 612.712C1117.27 611.731 1116.55 610.984 1115.63 610.472C1114.74 609.96 1113.74 609.704 1112.66 609.704C1111.59 609.704 1110.6 609.971 1109.68 610.504C1108.78 611.016 1108.06 611.773 1107.5 612.776C1106.97 613.757 1106.7 614.899 1106.7 616.2C1106.7 617.523 1106.97 618.685 1107.5 619.688C1108.06 620.669 1108.78 621.427 1109.68 621.96C1110.6 622.472 1111.59 622.728 1112.66 622.728C1113.74 622.728 1114.74 622.472 1115.63 621.96C1116.55 621.427 1117.27 620.669 1117.81 619.688C1118.34 618.685 1118.61 617.512 1118.61 616.168ZM1128.33 610.696C1128.91 609.693 1129.76 608.861 1130.89 608.2C1132.04 607.517 1133.37 607.176 1134.89 607.176C1136.45 607.176 1137.85 607.549 1139.11 608.296C1140.39 609.043 1141.4 610.099 1142.12 611.464C1142.85 612.808 1143.21 614.376 1143.21 616.168C1143.21 617.939 1142.85 619.517 1142.12 620.904C1141.4 622.291 1140.39 623.368 1139.11 624.136C1137.85 624.904 1136.45 625.288 1134.89 625.288C1133.4 625.288 1132.07 624.957 1130.92 624.296C1129.79 623.613 1128.93 622.771 1128.33 621.768V633.32H1125.42V607.464H1128.33V610.696ZM1140.23 616.168C1140.23 614.845 1139.97 613.693 1139.43 612.712C1138.9 611.731 1138.17 610.984 1137.26 610.472C1136.36 609.96 1135.37 609.704 1134.28 609.704C1133.21 609.704 1132.22 609.971 1131.31 610.504C1130.41 611.016 1129.68 611.773 1129.13 612.776C1128.6 613.757 1128.33 614.899 1128.33 616.2C1128.33 617.523 1128.6 618.685 1129.13 619.688C1129.68 620.669 1130.41 621.427 1131.31 621.96C1132.22 622.472 1133.21 622.728 1134.28 622.728C1135.37 622.728 1136.36 622.472 1137.26 621.96C1138.17 621.427 1138.9 620.669 1139.43 619.688C1139.97 618.685 1140.23 617.512 1140.23 616.168ZM1147.97 625.192C1147.42 625.192 1146.95 625 1146.56 624.616C1146.18 624.232 1145.99 623.763 1145.99 623.208C1145.99 622.653 1146.18 622.184 1146.56 621.8C1146.95 621.416 1147.42 621.224 1147.97 621.224C1148.5 621.224 1148.95 621.416 1149.31 621.8C1149.7 622.184 1149.89 622.653 1149.89 623.208C1149.89 623.763 1149.7 624.232 1149.31 624.616C1148.95 625 1148.5 625.192 1147.97 625.192Z" fill="white"/>
<path d="M463.341 953H428.671C419.475 953 410.657 958.739 404.155 968.956C397.653 979.172 394 993.028 394 1007.48V1388.8C394 1403.25 397.653 1417.11 404.155 1427.32C410.657 1437.54 419.475 1443.28 428.671 1443.28H567.354C576.549 1443.28 585.368 1437.54 591.87 1427.32C598.372 1417.11 602.024 1403.25 602.024 1388.8V1007.48C602.024 993.028 598.372 979.172 591.87 968.956C585.368 958.739 576.549 953 567.354 953H532.683M463.341 953H532.683M463.341 953V980.238M532.683 953V980.238M463.341 980.238C463.341 987.462 465.168 994.39 468.419 999.498C471.67 1004.61 476.079 1007.48 480.677 1007.48H515.348C519.945 1007.48 524.355 1004.61 527.606 999.498C530.857 994.39 532.683 987.462 532.683 980.238M463.341 980.238H532.683" stroke="white" stroke-width="2" stroke-linecap="round" stroke-linejoin="round"/>
<path d="M849.333 754H782.167C764.353 754 747.269 764.399 734.673 782.908C722.076 801.418 715 826.523 715 852.7V1543.6C715 1569.77 722.076 1594.88 734.673 1613.39C747.269 1631.9 764.353 1642.3 782.167 1642.3H1050.83C1068.65 1642.3 1085.73 1631.9 1098.33 1613.39C1110.92 1594.88 1118 1569.77 1118 1543.6V852.7C1118 826.523 1110.92 801.418 1098.33 782.908C1085.73 764.399 1068.65 754 1050.83 754H983.667M849.333 754H983.667M849.333 754V803.35M983.667 754V803.35M849.333 803.35C849.333 816.438 852.872 828.991 859.17 838.245C865.468 847.5 874.01 852.7 882.917 852.7H950.083C958.99 852.7 967.532 847.5 973.83 838.245C980.128 828.991 983.667 816.438 983.667 803.35M849.333 803.35H983.667" stroke="white" stroke-width="2" stroke-linecap="round" stroke-linejoin="round"/>
<path d="M1300.34 953H1265.67C1256.48 953 1247.66 958.739 1241.15 968.956C1234.65 979.172 1231 993.028 1231 1007.48V1388.8C1231 1403.25 1234.65 1417.11 1241.15 1427.32C1247.66 1437.54 1256.48 1443.28 1265.67 1443.28H1404.35C1413.55 1443.28 1422.37 1437.54 1428.87 1427.32C1435.37 1417.11 1439.02 1403.25 1439.02 1388.8V1007.48C1439.02 993.028 1435.37 979.172 1428.87 968.956C1422.37 958.739 1413.55 953 1404.35 953H1369.68M1300.34 953H1369.68M1300.34 953V980.238M1369.68 953V980.238M1300.34 980.238C1300.34 987.462 1302.17 994.39 1305.42 999.498C1308.67 1004.61 1313.08 1007.48 1317.68 1007.48H1352.35C1356.95 1007.48 1361.35 1004.61 1364.61 999.498C1367.86 994.39 1369.68 987.462 1369.68 980.238M1300.34 980.238H1369.68" stroke="white" stroke-width="2" stroke-linecap="round" stroke-linejoin="round"/>
</g>
<path d="M1520.19 1165L1543.9 1194.67C1545.37 1196.51 1545.37 1199.49 1543.9 1201.33L1520.19 1231" stroke="white" stroke-width="1.5" stroke-linecap="round"/>
<path d="M312.808 1165L289.103 1194.67C287.632 1196.51 287.632 1199.49 289.103 1201.33L312.808 1231" stroke="white" stroke-width="1.5" stroke-linecap="round"/>
<defs>
<filter id="filter0_d_273_19" x="0" y="0" width="1787" height="1913" filterUnits="userSpaceOnUse" color-interpolation-filters="sRGB">
<feFlood flood-opacity="0" result="BackgroundImageFix"/>
<feColorMatrix in="SourceAlpha" type="matrix" values="0 0 0 0 0 0 0 0 0 0 0 0 0 0 0 0 0 0 127 0" result="hardAlpha"/>
<feOffset dy="4"/>
<feGaussianBlur stdDeviation="50"/>
<feComposite in2="hardAlpha" operator="out"/>
<feColorMatrix type="matrix" values="0 0 0 0 0.27451 0 0 0 0 0.0666667 0 0 0 0 0.858824 0 0 0 0.5 0"/>
<feBlend mode="normal" in2="BackgroundImageFix" result="effect1_dropShadow_273_19"/>
<feBlend mode="normal" in="SourceGraphic" in2="effect1_dropShadow_273_19" result="shape"/>
</filter>
<filter id="filter1_d_273_19" x="96" y="96" width="1595" height="1721" filterUnits="userSpaceOnUse" color-interpolation-filters="sRGB">
<feFlood flood-opacity="0" result="BackgroundImageFix"/>
<feColorMatrix in="SourceAlpha" type="matrix" values="0 0 0 0 0 0 0 0 0 0 0 0 0 0 0 0 0 0 127 0" result="hardAlpha"/>
<feOffset dy="4"/>
<feGaussianBlur stdDeviation="2"/>
<feComposite in2="hardAlpha" operator="out"/>
<feColorMatrix type="matrix" values="0 0 0 0 0.27451 0 0 0 0 0.0666667 0 0 0 0 0.858824 0 0 0 0.25 0"/>
<feBlend mode="normal" in2="BackgroundImageFix" result="effect1_dropShadow_273_19"/>
<feBlend mode="normal" in="SourceGraphic" in2="effect1_dropShadow_273_19" result="shape"/>
</filter>
</defs>
</svg>
